<svg width="456" height="535" viewBox="0 0 456 535" fill="none" xmlns="http://www.w3.org/2000/svg" style="width: 100%; height: 100%;">
<g clip-path="url(#clip0_35_2594)">
<path d="M400.455 183.729C403.445 193.044 408.709 201.62 415.662 208.502C420.035 212.831 425.453 217.277 425.665 223.427C425.756 226.083 424.807 228.669 423.611 231.042C420.011 238.185 414.169 243.94 409.961 250.743C405.753 257.546 403.31 266.443 407.177 273.445C410.066 278.677 415.991 281.928 418.12 287.513C420.528 293.828 417.185 300.996 412.509 305.876C407.833 310.756 401.862 314.254 397.218 319.165C392.574 324.076 389.324 331.311 391.857 337.577C393.388 341.366 396.826 344.266 397.795 348.236C398.875 352.658 396.634 357.142 394.463 361.143C389.417 370.446 384.371 379.749 379.324 389.052C361.123 392.919 342.449 394.553 323.853 393.905C315.451 393.612 306.82 392.789 299.33 388.969C293.696 386.095 289.003 381.665 284.801 376.938C267.876 357.903 257.823 333.11 255.552 307.741C253.281 282.372 258.635 256.522 269.747 233.603C278.908 214.708 292.273 197.416 310.096 186.314C328.671 174.744 351.402 170.492 373.131 173.089C384.629 174.463 398.785 178.533 400.453 183.729H400.455Z" fill="#E3E3FF" stroke="#010101" stroke-width="1.5" stroke-linecap="round" stroke-linejoin="round"></path>
<path d="M424.039 191.98C328.074 216.975 231.704 240.413 134.979 262.28C120.087 211.185 106.214 159.745 91.811 108.454C187.598 82.279 282.441 55.162 377.359 25.539C394.743 80.77 411.716 136.132 424.039 191.98Z" fill="white" stroke="#010101" stroke-width="1.5" stroke-linecap="round" stroke-linejoin="round"></path>
<path d="M218.804 98.508C209.573 122.378 203.722 147.395 197.901 172.316C196.117 179.952 194.332 187.595 193.1 195.339C192.457 199.384 191.968 203.542 192.799 207.552C193.63 211.562 195.992 215.454 199.714 217.164C202.373 218.385 205.419 218.39 208.336 218.172C214.485 217.713 220.53 216.372 226.55 215.034C259.369 207.743 292.297 200.42 323.896 188.941C326.697 187.924 329.563 186.828 331.752 184.805C335.84 181.028 336.675 174.655 335.101 169.316C333.527 163.977 329.947 159.477 326.2 155.361C316.422 144.619 305.012 135.511 293.656 126.453C286.419 120.681 279.183 114.908 271.946 109.136C265.169 103.731 258.392 98.325 251.506 93.06C247.769 90.203 241.211 85.989 236.825 84.289C235.062 83.606 233.127 83.113 231.291 83.562C229.665 83.959 228.308 85.044 227.009 86.099C221.806 90.325 219.605 96.439 218.805 98.507L218.804 98.508Z" fill="#f5a524" stroke="#010101" stroke-width="1.5" stroke-linecap="round" stroke-linejoin="round"></path>
<path d="M377.359 25.54C375.497 17.335 373.193 10.542 369.728 0.75C356.364 2.874 193.091 52.19 83.9031 83.015C86.9231 91.55 87.3951 98.41 91.8111 108.454C185.023 81.403 279.827 53.581 377.359 25.539V25.54Z" fill="#010101" stroke="#010101" stroke-width="1.5" stroke-linecap="round" stroke-linejoin="round"></path>
<path d="M229.305 114.66C237.053 135.136 244.241 155.823 251.495 176.372C256.141 175.094 264.218 171.448 264.218 171.448L249.697 107.59C249.697 107.59 237.269 110.839 229.306 114.66H229.305Z" fill="#010101" stroke="#010101" stroke-width="1.5" stroke-linecap="round" stroke-linejoin="round"></path>
<path d="M259.477 182.262C257.203 182.845 255.368 184.866 255.005 187.185C254.791 188.555 255.059 189.974 255.615 191.245C255.994 192.112 256.517 192.933 257.246 193.537C259.384 195.311 262.687 194.743 265.024 193.241C265.857 192.706 266.636 192.054 267.162 191.216C268.392 189.253 267.948 186.53 266.463 184.752C264.978 182.974 262.555 181.474 259.478 182.263L259.477 182.262Z" fill="#010101" stroke="#010101" stroke-width="1.5" stroke-linecap="round" stroke-linejoin="round"></path>
<path d="M107.967 166.931C102.891 173.068 97.814 179.205 92.738 185.342C103.594 197.822 114.479 210.339 123.768 224.026C118.592 205.788 113.417 187.551 107.967 166.932V166.931Z" fill="white" stroke="#010101" stroke-width="1.5" stroke-linecap="round" stroke-linejoin="round"></path>
<path d="M183.675 251.131C179.942 268.403 177.167 287.24 175.44 304.826C220.138 304.826 258.229 303.335 302.266 305.103C302.493 277.336 305.163 248.16 310.201 220.852C269.628 231.39 232.255 238.512 183.675 251.131Z" fill="white" stroke="#010101" stroke-width="1.5" stroke-linecap="round" stroke-linejoin="round"></path>
<path d="M200.165 378.996C244.207 378.066 288.195 374.561 331.829 368.504C341.542 367.156 352.044 365.269 358.654 358.025C365.99 349.986 366.108 337.008 360.693 327.568C355.278 318.128 345.327 311.967 334.89 308.882C324.453 305.797 313.431 305.444 302.551 305.198C258.866 304.211 215.158 304.608 171.479 305.843C159.757 306.175 147.91 306.585 136.599 309.677C125.288 312.769 114.398 318.833 107.69 328.451C102.495 335.9 100.115 345.017 99.42 354.073C98.336 368.19 101.106 382.293 104.073 396.137C111.759 431.991 120.868 467.541 131.373 502.673C148.482 497.879 165.592 493.085 182.701 488.292C170.473 450.873 161.487 412.396 155.82 373.939C166.9 373.634 177.98 373.328 189.061 373.023C193.729 372.894 196.641 372.905 200.67 372.413L200.166 378.996H200.165Z" fill="#010101" stroke="#010101" stroke-width="1.5" stroke-linecap="round" stroke-linejoin="round"></path>
<path d="M200.403 331.393C195.776 331.676 188.783 331.705 184.156 331.988C183.448 332.031 182.662 332.11 182.188 332.638C180.362 334.672 182.182 344.022 182.182 349.035C184.123 349.4 186.063 349.765 188.004 350.13C186.785 352.018 184.37 356.342 184.129 356.76C183.833 357.276 185.943 376.654 185.638 391.295C192.446 380.775 200.024 368.881 200.453 367.899C200.965 366.726 200.403 344.332 200.403 331.394V331.393Z" fill="white" stroke="#010101" stroke-width="1.5" stroke-linecap="round" stroke-linejoin="round"></path>
<path d="M174.859 489.225C176.269 493.64 177.679 498.054 179.089 502.469C179.305 503.145 179.517 503.905 179.224 504.525C179.003 504.992 178.545 505.267 178.109 505.518C174.424 507.639 170.74 509.759 167.055 511.88C166.039 510.191 164.774 507.752 163.758 506.063C162.808 508.371 162.223 511.449 161.716 513.496C161.609 513.929 139.479 525.45 126.493 530.768C129.739 522.508 139.485 508.749 142.73 500.489C143.104 499.538 143.493 498.562 144.188 497.845C145.033 496.972 146.226 496.585 147.373 496.226C155.373 493.72 163.373 491.215 174.857 489.225H174.859Z" stroke="#010101" stroke-width="1.5" stroke-linecap="round" stroke-linejoin="round"></path>
<path d="M64.8001 533.5C58.1891 519.808 49.7521 505.764 39.784 494.282C35.2181 489.023 30.1131 483.893 23.6101 481.4C17.1071 478.907 8.88305 479.709 4.34005 484.987C-0.802949 490.963 0.417051 500.029 2.81705 507.54C5.71405 516.605 9.90105 525.257 16.2491 533.598C32.2091 534.492 46.8771 534.091 64.7991 533.499L64.8001 533.5Z" fill="#55D087" stroke="#010101" stroke-width="1.5" stroke-linecap="round" stroke-linejoin="round"></path>
<path d="M316.782 322.242C277.993 324.828 239.081 325.576 200.221 324.482C200.772 342.648 200.753 360.831 200.164 378.995" stroke="white" stroke-width="1.5" stroke-linecap="round" stroke-linejoin="round"></path>
<path d="M41.6409 472.587C40.7509 465.526 40.4969 458.058 43.5059 451.609C46.5149 445.16 53.6699 440.162 60.6049 441.762C65.6619 442.928 69.3849 447.13 72.5309 451.258C90.0789 474.282 102.7 504.738 112.945 532.588C99.5499 533.413 66.3209 533.995 64.7999 533.501C63.2809 533.007 44.0949 492.061 41.6409 472.588V472.587Z" fill="#55D087" stroke="#010101" stroke-width="1.5" stroke-linecap="round" stroke-linejoin="round"></path>
<path d="M382.046 523.647C393.618 475.625 403.116 428.984 415.254 377.938C416.17 374.087 413.235 370.39 409.277 370.398C337.08 370.542 284.923 372.01 218.442 372.126C215.088 372.132 212.181 374.446 211.436 377.716C201.129 422.911 189.064 475.88 181.889 523.259C244.754 523.259 313.921 523.647 382.046 523.647Z" fill="#006FEE" stroke="#010101" stroke-width="1.5" stroke-linecap="round" stroke-linejoin="round"></path>
<path d="M56.9971 449.662C67.0941 477.661 77.1911 505.66 87.2891 533.659" stroke="#010101" stroke-width="1.5" stroke-linecap="round" stroke-linejoin="round"></path>
<path d="M14.928 486.859C21.669 502.774 29.215 518.347 37.528 533.5" stroke="#010101" stroke-width="1.5" stroke-linecap="round" stroke-linejoin="round"></path>
<path d="M317.002 219.245C320.652 226.609 324.367 234.072 329.84 240.203C335.313 246.334 342.858 251.076 351.071 251.372C362.165 251.771 372.237 243.923 377.734 234.278C383.231 224.633 385.041 213.39 386.756 202.422C366.784 205.688 345.987 212.899 317.001 219.246L317.002 219.245Z" fill="white" stroke="#010101" stroke-width="1.5" stroke-linecap="round" stroke-linejoin="round"></path>
<path d="M372.922 514.679C383.78 470.931 392.755 427.911 404.397 381.002C334.385 381.002 284.283 383.062 220.284 383.062C210.83 423.333 199.244 472.04 192.56 514.891C248.786 514.891 311.991 514.679 372.922 514.679Z" fill="white" stroke="#010101" stroke-width="1.5" stroke-linecap="round" stroke-linejoin="round"></path>
<path d="M408.073 410.214C413.06 412.244 416.622 416.716 419.409 421.323C425.365 431.171 428.83 442.512 429.394 454.008C432.002 453.368 434.61 452.728 437.218 452.088C435.959 442.458 433.488 432.906 429.014 424.286C424.54 415.666 417.98 407.997 409.624 403.047C409.161 405.668 408.547 408.263 408.073 410.214Z" fill="#006FEE" stroke="#010101" stroke-width="1.5" stroke-linecap="round" stroke-linejoin="round"></path>
<path d="M436.879 452.505C437.607 455.605 438.117 458.757 438.403 461.928C436.135 462.716 433.735 463.125 431.334 463.13C430.781 459.978 430.229 456.826 429.676 453.674C431.895 452.72 434.27 452.131 436.879 452.504V452.505Z" stroke="#010101" stroke-width="1.5" stroke-linecap="round" stroke-linejoin="round"></path>
<path d="M447.996 464.414L454.487 467.15C454.282 467.078 454.077 467.006 447.996 464.414Z" stroke="#010101" stroke-width="1.5" stroke-linecap="round" stroke-linejoin="round"></path>
<path d="M438.779 479.562L440.348 484.373" stroke="#010101" stroke-width="1.5" stroke-linecap="round" stroke-linejoin="round"></path>
<path d="M425.797 469.955L421.41 474.181" stroke="#010101" stroke-width="1.5" stroke-linecap="round" stroke-linejoin="round"></path>
<path d="M381.884 523.063C381.737 524.011 381.665 524.845 381.634 525.617C381.46 530.026 377.822 533.5 373.41 533.499C280.006 533.486 198.577 533.245 104.057 533.233C100.595 533.233 98.0881 529.917 99.0391 526.588C99.0491 526.554 99.0591 526.519 99.0681 526.485C99.7221 524.197 101.832 522.64 104.211 522.704C142.879 523.735 318.254 523.063 381.884 523.063Z" fill="#006FEE" stroke="#010101" stroke-width="1.5" stroke-linecap="round" stroke-linejoin="round"></path>
<path d="M240.359 523.033C239.042 523.269 237.89 524.148 237.164 525.272C236.438 526.396 236.113 527.744 236.063 529.081C236.028 530.034 236.138 531.027 236.626 531.846C237.114 532.665 238.046 533.272 238.993 533.153" stroke="#010101" stroke-width="1.5" stroke-linecap="round" stroke-linejoin="round"></path>
<path d="M349.682 413.006C341.209 420.022 332.858 427.185 324.634 434.491" stroke="#010101" stroke-width="1.5" stroke-linecap="round" stroke-linejoin="round"></path>
<path d="M326.048 412.129C334.6 418.658 342.843 425.592 350.738 432.9" stroke="#010101" stroke-width="1.5" stroke-linecap="round" stroke-linejoin="round"></path>
<path d="M266.143 415.264C257.181 422.474 248.01 429.423 238.645 436.1" stroke="#010101" stroke-width="1.5" stroke-linecap="round" stroke-linejoin="round"></path>
<path d="M239.395 414.89C249.04 422.595 259.262 429.577 269.947 435.757" stroke="#010101" stroke-width="1.5" stroke-linecap="round" stroke-linejoin="round"></path>
<path d="M263.58 472.368C273.698 464.637 286.602 460.922 299.336 461.04C312.069 461.159 324.618 464.967 335.822 471.018" stroke="#010101" stroke-width="1.5" stroke-linecap="round" stroke-linejoin="round"></path>
<path d="M327.091 466.918C326.776 470.603 326.07 474.254 324.988 477.791C324.354 479.862 323.558 481.951 322.096 483.548C320.634 485.145 318.366 486.165 316.271 485.618C314.398 485.128 312.998 483.484 312.313 481.673C311.628 479.862 311.55 477.886 311.523 475.951C311.461 471.421 311.639 466.887 312.181 462.454C316.952 463.432 321.785 464.859 327.092 466.919L327.091 466.918Z" fill="#E3E3FF" stroke="#010101" stroke-width="1.5" stroke-linecap="round" stroke-linejoin="round"></path>
<path d="M319.665 464.483C319.088 468.358 318.606 471.496 318.221 475.395" stroke="#010101" stroke-width="1.5" stroke-linecap="round" stroke-linejoin="round"></path>
<path d="M91.455 150.538C91.738 146.935 90.448 143.375 90.477 139.761C90.486 138.602 90.724 137.29 91.698 136.663C91.905 136.53 92.145 136.434 92.391 136.435C92.747 136.437 93.072 136.638 93.344 136.868C94.667 137.986 95.135 139.792 95.532 141.478C95.876 142.939 96.221 144.454 95.929 145.926C95.477 148.203 93.601 149.913 91.455 150.538Z" fill="white" stroke="#010101" stroke-width="1.5" stroke-linecap="round" stroke-linejoin="round"></path>
<path d="M96.337 180.688C93.539 172.943 90.704 164.235 90.842 156.001C90.98 147.767 94.738 139.071 102.101 135.384C102.57 135.149 103.105 134.932 103.605 135.09C104.839 135.481 104.434 137.33 103.751 138.43C101.909 141.399 99.815 144.212 97.5 146.829C98.946 143.825 101.13 141.18 103.806 139.19C104.313 138.813 105.643 137.693 106.273 137.743C107.276 137.822 107.906 138.981 107.786 139.981C107.666 140.981 106.275 142.579 105.645 143.365C103.711 145.778 101.672 148.106 99.534 150.34C101.522 148.195 103.51 146.051 105.498 143.906C106.022 143.341 106.669 142.727 107.434 142.816C108.889 142.984 108.84 145.144 108.232 146.477C106.705 149.823 104.325 152.775 101.38 154.978C102.869 153.552 104.358 152.126 105.847 150.699C106.433 150.138 107.051 149.557 107.83 149.328C108.609 149.099 109.593 149.348 109.927 150.088C110.312 150.94 109.536 151.783 109.11 152.615C107.77 155.233 107.351 155.592 105.698 158.352C106.771 161.184 108.175 166.78 107.688 167.267C106.818 168.137 99.767 176.599 96.335 180.689L96.337 180.688Z" fill="white" stroke="#010101" stroke-width="1.5" stroke-linecap="round" stroke-linejoin="round"></path>
<path d="M396.424 84.526C392.618 83.803 389.121 83.71 385.531 83.881C384.831 83.914 384.167 84.447 383.888 85.09C383.31 86.426 384.918 87.633 386.277 88.154C389.807 89.509 393.457 89.675 397.215 90.092C394.89 90.145 392.685 89.886 390.396 89.477C386.624 88.804 382.473 89.348 382.612 91.738C382.709 93.403 384.486 94.301 386.118 94.642C390.583 95.576 394.245 95.335 398.805 95.477C396.266 95.477 393.863 95.761 391.325 95.761C389.758 95.761 387.04 96.538 386.58 98.037C386.257 99.089 386.708 100.487 387.658 101.042C388.608 101.597 389.748 101.698 390.845 101.787C393.75 102.023 397.813 101.785 400.718 102.021C398.593 102.682 387.784 100.285 390.558 106.426C391.689 108.93 397.514 108.272 402.078 108.571C403.799 108.684 405.89 108.611 406.751 107.116C408.134 104.712 405.426 96.48 404.043 90.274C403.459 87.656 402.549 83.033 401.399 80.609C400.854 79.459 400.023 78.236 398.759 78.086C397.539 77.941 396.414 78.926 395.978 80.074C395.542 81.222 396.133 81.743 396.424 84.526Z" fill="white" stroke="#010101" stroke-width="1.5" stroke-linecap="round" stroke-linejoin="round"></path>
<path d="M35.0181 202.003L40.0391 202.84" stroke="#010101" stroke-width="1.5" stroke-linecap="round" stroke-linejoin="round"></path>
<path d="M15.7651 390.557L14.0911 397.53" stroke="#010101" stroke-width="1.5" stroke-linecap="round" stroke-linejoin="round"></path>
<path d="M86.5741 282.366C85.7011 282.64 85.2671 283.795 85.6901 284.606C86.1131 285.417 87.2391 285.739 88.0581 285.331C88.8701 284.926 89.2931 283.845 88.9051 283.024C88.5171 282.203 87.4491 282.091 86.5741 282.366Z" fill="#010101" stroke="#010101" stroke-width="1.5" stroke-linecap="round" stroke-linejoin="round"></path>
<path d="M428.961 308.639C428.088 308.913 427.654 310.068 428.077 310.879C428.5 311.69 429.626 312.012 430.445 311.604C431.257 311.199 431.68 310.118 431.292 309.297C430.904 308.476 429.836 308.364 428.961 308.639Z" fill="#010101" stroke="#010101" stroke-width="1.5" stroke-linecap="round" stroke-linejoin="round"></path>
<path d="M414.708 34.95C413.835 35.224 413.401 36.379 413.824 37.19C414.247 38.001 415.373 38.323 416.192 37.915C417.004 37.51 417.427 36.429 417.039 35.608C416.651 34.787 415.583 34.675 414.708 34.95Z" fill="#010101" stroke="#010101" stroke-width="1.5" stroke-linecap="round" stroke-linejoin="round"></path>
</g>
<defs>
<clipPath id="clip0_35_2594">
<rect width="455.238" height="534.872" fill="white"></rect>
</clipPath>
</defs>
</svg>