<svg width="584" height="490" viewBox="0 0 584 490" fill="none" xmlns="http://www.w3.org/2000/svg" style="width: 100%; height: 100%;">
<g clip-path="url(#clip0_35_1269)">
<path d="M446.608 325.091L468.177 341.027C479.033 326.657 493.186 308.33 503.715 292.216C504.641 290.799 503.241 289.004 501.645 289.569C491.525 293.15 482.046 299.188 475.762 295.951C473.539 294.806 471.243 292.719 468.917 293.64C467.898 294.043 467.186 294.956 466.524 295.829C458.569 306.326 450.614 316.823 446.606 325.091H446.608Z" fill="white" stroke="#010101" stroke-width="1.5" stroke-linecap="round" stroke-linejoin="round"></path>
<path d="M241.441 234.488C253.685 244.237 265.93 253.987 278.174 263.736C283.243 267.772 288.538 272.112 290.791 278.186C292.68 283.278 292.167 288.915 293.064 294.272C293.504 296.897 294.288 299.563 293.766 302.173C293.313 304.435 291.929 306.381 290.578 308.251C282.39 319.588 274.121 331.016 263.762 340.411C262.415 341.633 260.983 342.848 259.25 343.399C255.767 344.506 252.052 342.683 249.079 340.558C243.829 336.805 239.451 331.98 235.197 327.127C227.149 317.949 219.381 308.527 211.835 298.933C206.555 292.22 201.372 285.406 196.952 278.098C194.541 274.112 193.106 270.116 191.916 265.611C199.553 261.465 238.639 236.436 241.44 234.489L241.441 234.488Z" fill="white" stroke="#010101" stroke-width="1.5" stroke-linecap="round" stroke-linejoin="round"></path>
<path d="M373.659 462.198L374.231 489.01C392.24 488.818 415.395 488.817 434.585 487.3C436.272 487.167 436.837 484.962 435.415 484.044C426.395 478.224 415.823 474.412 414.543 467.46C414.09 465.001 414.338 461.908 412.188 460.63C411.246 460.07 410.088 460.064 408.993 460.074C395.823 460.194 382.653 460.314 373.659 462.197V462.198Z" fill="white" stroke="#010101" stroke-width="1.5" stroke-linecap="round" stroke-linejoin="round"></path>
<path d="M240.473 359.607C240.473 359.607 307.055 283.914 347.474 239.488C353.19 233.205 359.439 226.601 367.719 224.711C376.622 222.679 385.715 226.581 393.875 230.681C423.258 245.444 450.709 264.046 475.31 285.865C467.182 302.522 453.33 325.104 443.017 339.652C418.778 318.154 393.728 296.605 376.015 278.891C353.849 301.057 347.463 306.736 329.814 329.325C349.35 331.847 370.643 326.683 387.958 336.074C401.561 343.452 409.34 358.199 415.026 372.591C426.211 400.905 424.653 433.151 429.221 462.634C405.764 465.916 389.982 467.006 367.286 468.886C362.783 439.201 365.345 405.987 360.985 375.552C330.987 378.08 278.825 384.963 262.817 378.743C249.43 373.541 240.472 359.606 240.472 359.606L240.473 359.607Z" fill="#010101" stroke="#010101" stroke-width="1.5" stroke-linecap="round" stroke-linejoin="round"></path>
<path d="M581.929 247.5C582.673 239.518 584.525 227.601 579.449 221.396C573.908 214.623 563.267 213.84 555.411 217.696C547.555 221.553 543.176 228.731 539.056 236.452C542.062 231.051 542.765 225.257 543.188 219.09C543.744 210.978 540.562 201.254 532.674 199.283C529.307 198.442 525.738 199.23 522.491 200.455C512.719 204.14 504.768 211.657 498.811 220.234C492.854 228.812 486.819 240.399 483.014 248.662C520.011 248.662 539.169 247.5 581.929 247.5Z" fill="#E3E3FF" stroke="#010101" stroke-width="1.5" stroke-linecap="round" stroke-linejoin="round"></path>
<path d="M161.877 423.154C153.968 415.18 144.687 405.835 136.778 397.861C128.266 389.279 119.375 380.448 108.043 376.24C96.711 372.033 82.191 373.828 75.124 383.634C68.256 393.165 70.581 406.59 75.694 417.166C68.471 406.606 56.749 397.679 44.016 398.921C42.125 399.105 40.22 399.525 38.588 400.497C34.89 402.697 33.277 407.387 33.547 411.682C33.817 415.977 35.633 420.002 40.912 422.899C87.839 422.899 105.382 423.155 161.878 423.155L161.877 423.154Z" fill="#E3E3FF" stroke="#010101" stroke-width="1.5" stroke-linecap="round" stroke-linejoin="round"></path>
<path d="M220.659 240.091C224.833 238.069 229.089 235.482 231.089 231.297C232.299 228.767 232.555 225.901 232.762 223.104C233.194 217.26 233.46 211.186 231.275 205.749C229.139 200.435 224.841 196.25 220.109 193.025C215.377 189.799 210.147 187.388 205.179 184.539C203.378 183.506 201.556 182.364 200.38 180.653C199.274 179.045 198.836 177.075 197.925 175.348C196.185 172.051 192.786 169.855 189.189 168.876C185.592 167.898 181.788 168.011 178.08 168.405C175 168.733 171.891 169.249 168.825 168.811C166.242 168.443 163.807 167.413 161.296 166.703C158.099 165.799 154.755 165.414 151.436 165.567C148.584 165.699 145.664 166.261 143.293 167.851C139.453 170.426 137.74 175.172 136.761 179.691C135.202 186.885 134.906 194.432 136.642 201.586C138.377 208.74 142.236 215.479 148.01 220.046C151.041 222.443 154.571 224.242 157.214 227.062C164.066 234.375 163.664 247.051 171.786 252.921C176.432 256.279 182.786 256.378 188.284 254.757C193.782 253.136 198.689 250.012 203.708 247.244C208.727 244.476 214.535 243.055 220.66 240.089L220.659 240.091Z" fill="#010101" stroke="#010101" stroke-width="1.5" stroke-linecap="round" stroke-linejoin="round"></path>
<path d="M191.872 226.572C190.354 226.169 188.662 226.679 187.514 227.751C186.366 228.823 185.749 230.4 185.71 231.971C185.644 234.667 187.331 237.324 189.798 238.412C192.266 239.5 195.365 238.952 197.064 236.834C200.771 242.602 205.416 249.651 208.915 255.263C207.485 256.575 205.58 257.564 202.479 259.275C213.14 264.271 236.369 270.812 236.369 270.812C236.369 270.812 235.067 249.941 234.198 239.231C231.474 241.057 229.951 241.993 227.696 243.369C225.751 240.229 223.008 236.629 220.677 233.345C224.265 231.049 226.302 226.549 225.661 222.338C225.313 220.056 224.265 217.944 223.129 215.934C219.397 209.331 214.55 203.359 208.836 198.012C204.204 199.908 198.781 199.773 194.041 197.814C196.535 205.89 197.502 221.315 191.872 226.572Z" fill="white" stroke="#010101" stroke-width="1.5" stroke-linecap="round" stroke-linejoin="round"></path>
<path d="M210.417 210.457C212.442 212.261 214.536 213.986 216.693 215.629C216.771 215.688 216.854 215.757 216.871 215.853C216.885 215.934 216.847 216.013 216.808 216.086C216.15 217.33 215.052 218.335 213.756 218.882" stroke="#010101" stroke-width="1.5" stroke-linecap="round" stroke-linejoin="round"></path>
<path d="M255.398 222.315C249.796 226.765 244.194 231.216 238.176 236.388C252.659 252.837 266.131 270.176 278.49 288.275C282.209 293.721 286.035 299.433 291.766 302.694C293.202 303.511 294.774 304.166 296.424 304.256C298.425 304.365 300.38 303.637 302.161 302.719C307.186 300.127 311.515 295.537 312.316 289.94C312.409 289.289 312.452 288.61 312.245 287.985C311.996 287.233 311.416 286.645 310.856 286.085C299.178 274.411 288.083 262.154 277.593 248.685C289.737 223.841 302.43 201.19 314.574 176.346C316.856 171.677 319.18 166.858 319.529 161.673C320.263 150.76 312.303 141.389 304.685 133.54C288.585 116.954 267.051 97.007 249.652 82.143C238.023 92.971 228.428 104.571 225.926 105.679C247.678 127.431 263.481 143.575 281.609 159.729C273.252 178.391 263.799 200.342 255.398 222.315Z" fill="#006FEE" stroke="#010101" stroke-width="1.5" stroke-linecap="round" stroke-linejoin="round"></path>
<path d="M93.614 184.65L113.619 264.013C113.619 264.013 160.013 270.127 180.586 272.14C187.373 268.294 194.161 264.448 200.931 259.977C214.281 281.099 227.756 302.382 245.066 320.402C249.643 325.167 254.57 329.819 257.429 335.776C262.932 347.241 258.771 362.456 247.357 368.946C234.325 347.903 210.245 324.152 194.446 304.267C169.574 305.065 102.439 301.621 91.576 293.848C86.413 290.154 83.649 283.873 81.371 277.947C73.98 258.72 67.792 229.806 57.459 195.261C57.151 194.231 93.614 184.65 93.614 184.65Z" fill="#006FEE" stroke="#010101" stroke-width="1.5" stroke-linecap="round" stroke-linejoin="round"></path>
<path d="M236.369 270.811C248.744 287.342 261.588 303.503 274.852 319.331" stroke="#010101" stroke-width="1.5" stroke-linecap="round" stroke-linejoin="round"></path>
<path d="M213.14 236.925C215.967 235.773 218.701 234.392 221.305 232.8" stroke="#010101" stroke-width="1.5" stroke-linecap="round" stroke-linejoin="round"></path>
<path d="M309.835 330.067C317.112 329.673 324.403 329.553 331.689 329.706Z" fill="white"></path>
<path d="M309.835 330.067C317.112 329.673 324.403 329.553 331.689 329.706" stroke="#010101" stroke-width="1.5" stroke-linecap="round" stroke-linejoin="round"></path>
<path d="M389.044 0.75C388.795 50.866 388.546 100.982 388.297 151.098" stroke="#010101" stroke-width="1.5" stroke-linecap="round" stroke-linejoin="round"></path>
<path d="M446.608 90.943V210.457" stroke="#010101" stroke-width="1.5" stroke-linecap="round" stroke-linejoin="round"></path>
<path d="M47.624 167.028C48.033 166.55 48.018 165.128 47.909 164.508C47.8 163.888 47.524 163.313 47.285 162.731C46.846 161.666 46.521 160.555 46.316 159.421C46.122 158.347 46.151 157.01 47.089 156.452C47.736 156.067 48.596 156.239 49.215 156.668C49.834 157.097 50.266 157.739 50.692 158.36C51.612 159.699 52.596 161.03 53.902 161.996C54.193 162.211 54.532 162.468 54.527 162.83C54.525 162.991 54.451 163.141 54.375 163.283C53.813 164.335 53.046 165.277 52.131 166.041C51.47 166.593 50.714 167.06 49.872 167.24C49.03 167.42 48.19 168.015 47.625 167.027L47.624 167.028Z" fill="white" stroke="#010101" stroke-width="1.5" stroke-linecap="round" stroke-linejoin="round"></path>
<path d="M242.928 103.107C179.159 140.733 138.458 162.741 71.785 194.942C59.441 174.948 44.416 151.235 33.516 129.748C58.227 113.19 90.848 100.45 115.78 87.07C154.735 66.165 164.473 60.327 203.818 40.874C216.279 61.986 228.739 83.098 242.928 103.107Z" fill="#f5a524" stroke="#010101" stroke-width="1.5" stroke-linecap="round" stroke-linejoin="round"></path>
<path d="M85.404 117.585C87.34 127.145 89.496 136.661 91.869 146.122C97.858 143.545 103.718 140.669 109.42 137.508C112.53 142.669 115.641 147.831 118.751 152.992C120.212 152.223 121.673 151.454 123.134 150.684C118.938 141.78 110.889 128.09 105.623 119.774C103.828 120.587 102.341 121.768 100.545 122.581C100.545 122.581 106.067 130.966 106.592 133.131C101.672 135.928 98.792 136.715 95.091 138.59C94.434 131.168 92.3 124.959 91.101 115.203C89.193 115.773 87.285 116.343 85.405 117.584L85.404 117.585Z" fill="white" stroke="#010101" stroke-width="1.5" stroke-linecap="round" stroke-linejoin="round"></path>
<path d="M153.451 80.584C155.387 90.144 157.543 99.66 159.916 109.121C165.905 106.544 171.765 103.668 177.467 100.507C180.577 105.668 183.688 110.83 186.798 115.991C188.259 115.222 189.72 114.453 191.181 113.683C186.985 104.779 178.936 91.089 173.67 82.773C171.875 83.586 170.388 84.767 168.592 85.58C168.592 85.58 174.114 93.965 174.639 96.13C169.719 98.927 166.839 99.714 163.138 101.589C162.481 94.167 160.347 87.958 159.148 78.202C157.24 78.772 155.332 79.342 153.452 80.583L153.451 80.584Z" fill="white" stroke="#010101" stroke-width="1.5" stroke-linecap="round" stroke-linejoin="round"></path>
<path d="M129.082 95.113C125.352 97.456 123.22 101.8 122.648 106.167C122.076 110.534 122.881 114.963 123.933 119.24C125.257 124.624 127.052 130.048 130.551 134.35C134.05 138.651 139.568 141.66 145.056 140.871C149.289 140.262 153.064 137.399 155.074 133.625C157.084 129.851 157.253 123.477 156.579 119.869C155.381 113.452 150.329 101.879 143.386 96.939C139.183 93.949 132.329 93.073 129.081 95.113H129.082Z" fill="white" stroke="#010101" stroke-width="1.5" stroke-linecap="round" stroke-linejoin="round"></path>
<path d="M132.964 102.924C131.818 103.019 130.802 103.782 130.176 104.746C129.55 105.71 129.268 106.859 129.112 107.998C128.655 111.336 129.195 114.731 129.969 118.01C130.619 120.763 131.449 123.509 132.894 125.94C134.339 128.371 136.458 130.486 139.103 131.487C141.748 132.488 144.943 132.234 147.145 130.458C148.862 129.072 149.832 126.911 150.124 124.724C150.416 122.537 150.088 120.311 149.578 118.164C148.602 114.056 146.906 110.03 144.05 106.92C141.194 103.81 137.225 102.571 132.964 102.924Z" fill="#f5a524" stroke="#010101" stroke-width="1.5" stroke-linecap="round" stroke-linejoin="round"></path>
<path d="M49.966 164.76C53.354 162.495 56.921 160.642 60.601 159.235C61.293 158.971 62.013 158.719 62.732 158.83C63.451 158.941 64.172 159.507 64.349 160.374C64.631 161.76 63.495 162.913 62.486 163.612C59.677 165.558 56.702 167.139 53.626 168.319C58.718 166.846 63.501 161.713 66.774 163.062C67.977 163.558 67.95 166.264 65.115 168.008C62.217 169.791 59.412 171.089 56.518 172.87C59.043 171.501 61.567 170.133 64.092 168.764C64.862 168.347 65.66 167.922 66.501 167.921C67.342 167.921 68.244 168.46 68.518 169.441C68.773 170.353 68.416 171.389 67.846 172.049C67.276 172.709 66.527 173.071 65.798 173.419C63.178 174.669 60.559 175.919 57.939 177.169C60.529 175.943 63.135 174.711 65.859 174.063C66.781 173.843 67.998 173.88 68.34 174.959C68.63 175.873 68.042 176.834 67.454 177.495C67.454 177.495 64.984 179.167 63.468 180.207C63.353 180.286 69.496 191.238 69.496 191.238L65.856 192.298C65.856 192.298 64.199 189.973 58.864 187.134C56.338 185.79 53.816 184.008 52.383 181.793C50.077 178.228 48.18 174.11 47.331 169.628C47.033 168.052 47.159 166.635 49.966 164.758V164.76Z" fill="white" stroke="#010101" stroke-width="1.5" stroke-linecap="round" stroke-linejoin="round"></path>
<path d="M63.806 180.066C62.501 180.597 61.223 181.308 60.098 182.191Z" fill="white"></path>
<path d="M63.806 180.066C62.501 180.597 61.223 181.308 60.098 182.191" stroke="#010101" stroke-width="1.5" stroke-linecap="round" stroke-linejoin="round"></path>
<path d="M225.769 63.273C225.164 63.445 223.878 62.836 223.361 62.479C222.844 62.122 222.436 61.63 222.008 61.169C221.224 60.325 220.35 59.565 219.406 58.906C218.512 58.281 217.285 57.749 216.386 58.367C215.766 58.794 215.563 59.647 215.694 60.388C215.825 61.129 216.228 61.79 216.614 62.437C217.446 63.832 218.244 65.282 218.576 66.872C218.65 67.226 218.742 67.641 219.073 67.788C219.22 67.853 219.388 67.849 219.548 67.839C220.738 67.768 221.914 67.465 222.991 66.953C223.769 66.583 224.509 66.092 225.024 65.402C225.539 64.712 226.431 64.198 225.769 63.273Z" fill="white" stroke="#010101" stroke-width="1.5" stroke-linecap="round" stroke-linejoin="round"></path>
<path d="M222.73 64.453C219.257 66.583 216.083 69.049 213.268 71.803C212.739 72.321 212.209 72.87 212.01 73.569C211.811 74.268 212.023 75.16 212.737 75.683C213.878 76.518 215.401 75.968 216.457 75.344C219.399 73.606 222.078 71.565 224.435 69.264C220.97 73.273 214.308 75.472 214.167 79.009C214.115 80.309 216.585 81.415 219.353 79.569C222.183 77.682 224.534 75.677 227.361 73.792C225.063 75.513 222.765 77.234 220.467 78.955C219.766 79.48 219.047 80.027 218.695 80.79C218.343 81.553 218.457 82.598 219.234 83.257C219.956 83.87 221.047 83.979 221.884 83.736C222.721 83.493 223.364 82.965 223.984 82.449C226.214 80.592 228.444 78.735 230.674 76.879C228.478 78.719 226.271 80.571 224.544 82.774C223.959 83.52 223.484 84.64 224.322 85.402C225.031 86.047 226.15 85.915 226.996 85.657C226.996 85.657 228.479 84.965 230.057 84.022C230.177 83.951 237.073 95.071 237.073 95.071L241.113 90.392C241.113 90.392 239.693 87.915 239.342 81.884C239.176 79.028 238.611 75.993 237.197 73.765C234.922 70.181 231.973 66.737 228.255 64.094C226.948 63.164 225.607 62.688 222.73 64.453Z" fill="white" stroke="#010101" stroke-width="1.5" stroke-linecap="round" stroke-linejoin="round"></path>
<path d="M229.534 84.328C230.543 83.586 232.488 82.138 234.334 80.939Z" fill="white"></path>
<path d="M229.534 84.328C230.543 83.586 232.488 82.138 234.334 80.939" stroke="#010101" stroke-width="1.5" stroke-linecap="round" stroke-linejoin="round"></path>
<path d="M513.567 109.326C512.303 109.723 511.674 111.397 512.286 112.572C512.898 113.747 514.531 114.214 515.717 113.623C516.894 113.037 517.506 111.469 516.945 110.28C516.384 109.091 514.836 108.927 513.567 109.326Z" fill="#010101" stroke="#010101" stroke-width="1.5" stroke-linecap="round" stroke-linejoin="round"></path>
<path d="M27.274 315.301C26.01 315.698 25.381 317.372 25.993 318.547C26.605 319.722 28.238 320.189 29.424 319.598C30.601 319.012 31.213 317.444 30.652 316.255C30.091 315.066 28.543 314.902 27.274 315.301Z" fill="#010101" stroke="#010101" stroke-width="1.5" stroke-linecap="round" stroke-linejoin="round"></path>
<path d="M508.634 396.453C507.37 396.85 506.741 398.524 507.353 399.699C507.966 400.874 509.598 401.341 510.784 400.75C511.961 400.164 512.573 398.596 512.012 397.407C511.451 396.218 509.903 396.054 508.634 396.453Z" fill="#010101" stroke="#010101" stroke-width="1.5" stroke-linecap="round" stroke-linejoin="round"></path>
<path d="M0.75 217.664C4.303 218.476 7.856 219.288 11.409 220.1" stroke="#010101" stroke-width="1.5" stroke-linecap="round" stroke-linejoin="round"></path>
<path d="M349.028 75.479C347.662 77.937 346.296 80.396 344.931 82.854" stroke="#010101" stroke-width="1.5" stroke-linecap="round" stroke-linejoin="round"></path>
<path d="M319.422 431.469C319.511 434.368 320.599 437.267 320.688 440.165" stroke="#010101" stroke-width="1.5" stroke-linecap="round" stroke-linejoin="round"></path>
</g>
<defs>
<clipPath id="clip0_35_1269">
<rect width="583.629" height="489.76" fill="white"></rect>
</clipPath>
</defs>
</svg>