<svg width="689" height="472" viewBox="0 0 689 472" fill="none" xmlns="http://www.w3.org/2000/svg" style="width: 100%; height: 100%;">
<g clip-path="url(#clip0_35_1181)">
<path d="M590.406 86.438C598.505 86.459 606.604 86.481 614.556 86.494C608.49 100.282 603.63 114.743 599.034 128.407C604.765 128.159 609.449 128.665 614.266 128.665C605.217 146.6 594.457 163.671 582.179 179.571C586.417 166.471 590.654 153.371 594.488 140.842C589.768 140.574 586.486 140.892 579.979 140.892C581.344 125.176 584.032 107.677 590.406 86.437V86.438Z" fill="#010101" stroke="#010101" stroke-width="1.5" stroke-linecap="round" stroke-linejoin="round"></path>
<path d="M376.086 68.332C378.336 58.013 380.586 47.693 382.836 37.374C387.881 43.762 392.926 50.149 397.97 56.537C407.065 47.915 416.16 39.293 425.255 30.671C428.218 39.559 429.789 48.91 429.894 58.278C439.006 56.57 448.118 54.861 457.23 53.153C452.991 61.415 448.751 69.677 444.512 77.94C453.144 76.781 461.968 77.072 470.505 78.797C464.646 86.298 458.034 93.211 450.801 99.398" stroke="#010101" stroke-width="1.5" stroke-linecap="round" stroke-linejoin="round"></path>
<path d="M406.033 16.43C406.029 12.64 406.025 8.84997 406.02 5.06097" stroke="#010101" stroke-width="1.5" stroke-linecap="round" stroke-linejoin="round"></path>
<path d="M464.089 27.041C467.752 25.525 471.416 24.009 475.079 22.493" stroke="#010101" stroke-width="1.5" stroke-linecap="round" stroke-linejoin="round"></path>
<path d="M208.258 90.523C207.284 82.114 204.258 75.217 200.79 67.495C194.842 54.249 174.704 30.219 156.981 24.892C155.961 26.562 154.941 28.232 153.92 29.901C169.589 37.879 182.728 50.741 191.039 66.237C195.255 74.098 198.231 82.551 201.19 90.966C204.157 90.729 205.583 90.963 208.258 90.523Z" fill="#006FEE" stroke="#010101" stroke-width="1.5" stroke-linecap="round" stroke-linejoin="round"></path>
<path d="M157.059 25.039C153.993 23.949 151.081 22.608 148.015 21.518C147.276 23.186 146.761 24.8 145.786 26.342C148.724 27.482 151.163 28.872 154.101 30.013C154.907 28.658 155.713 27.303 157.059 25.04V25.039Z" fill="#E3E3FF" stroke="#010101" stroke-width="1.5" stroke-linecap="round" stroke-linejoin="round"></path>
<path d="M147.32 0.75C147.7 3.063 148.164 5.358 148.71 7.636C148.713 7.392 148.698 7.149 147.32 0.75Z" fill="#f5a524" stroke="#010101" stroke-width="1.5" stroke-linecap="round" stroke-linejoin="round"></path>
<path d="M122.121 12.278L129.073 14.105Z" fill="#f5a524"></path>
<path d="M122.121 12.278L129.073 14.105" stroke="#010101" stroke-width="1.5" stroke-linecap="round" stroke-linejoin="round"></path>
<path d="M125.871 36.806C128.005 35.265 130.139 33.723 132.273 32.182Z" fill="#f5a524"></path>
<path d="M125.871 36.806C128.005 35.265 130.139 33.723 132.273 32.182" stroke="#010101" stroke-width="1.5" stroke-linecap="round" stroke-linejoin="round"></path>
<path d="M400.63 265.857L108.287 264.207L119.025 110.199L414.367 110.005L400.63 265.857Z" fill="white" stroke="#010101" stroke-width="1.5" stroke-linecap="round" stroke-linejoin="round"></path>
<path d="M414.367 110.005L416 84.07L121.075 83.562L119.025 110.199L414.367 110.005Z" fill="#010101" stroke="#010101" stroke-width="1.5" stroke-linecap="round" stroke-linejoin="round"></path>
<path d="M388.339 92.405C387.063 94.075 386.737 96.35 386.851 98.449C386.965 100.548 387.834 102.637 389.401 104.037C390.395 104.926 391.625 105.512 392.882 105.957C394.947 106.688 397.177 107.071 399.339 106.717C401.501 106.363 403.585 105.21 404.768 103.366C406.279 101.01 407.336 97.052 404.957 92.566C403.646 90.093 395.339 83.243 388.339 92.405Z" fill="white" stroke="#010101" stroke-width="1.5" stroke-linecap="round" stroke-linejoin="round"></path>
<path d="M391.269 102.643C394.377 98.954 397.405 96.496 400.839 93.109Z" fill="white"></path>
<path d="M391.269 102.643C394.377 98.954 397.405 96.496 400.839 93.109" stroke="#010101" stroke-width="1.5" stroke-linecap="round" stroke-linejoin="round"></path>
<path d="M391.269 93.109C394.876 97.036 397.376 99.399 401.608 102.643Z" fill="white"></path>
<path d="M391.269 93.109C394.876 97.036 397.376 99.399 401.608 102.643" stroke="#010101" stroke-width="1.5" stroke-linecap="round" stroke-linejoin="round"></path>
<path d="M364.63 309.624L72.287 307.974L83.025 153.966L378.367 153.772L364.63 309.624Z" fill="white" stroke="#010101" stroke-width="1.5" stroke-linecap="round" stroke-linejoin="round"></path>
<path d="M378.367 153.772L380 127.837L85.075 127.329L83.025 153.966L378.367 153.772Z" fill="#010101" stroke="#010101" stroke-width="1.5" stroke-linecap="round" stroke-linejoin="round"></path>
<path d="M352.339 136.172C351.063 137.842 350.737 140.117 350.851 142.216C350.965 144.315 351.834 146.404 353.401 147.804C354.395 148.693 355.625 149.279 356.882 149.724C358.947 150.455 361.177 150.838 363.339 150.484C365.501 150.13 367.585 148.977 368.768 147.133C370.279 144.777 371.336 140.819 368.957 136.333C367.646 133.86 359.339 127.01 352.339 136.172Z" fill="white" stroke="#010101" stroke-width="1.5" stroke-linecap="round" stroke-linejoin="round"></path>
<path d="M355.269 146.41C358.377 142.721 361.405 140.263 364.839 136.876Z" fill="white"></path>
<path d="M355.269 146.41C358.377 142.721 361.405 140.263 364.839 136.876" stroke="#010101" stroke-width="1.5" stroke-linecap="round" stroke-linejoin="round"></path>
<path d="M355.269 136.876C358.876 140.803 361.376 143.166 365.608 146.41Z" fill="white"></path>
<path d="M355.269 136.876C358.876 140.803 361.376 143.166 365.608 146.41" stroke="#010101" stroke-width="1.5" stroke-linecap="round" stroke-linejoin="round"></path>
<path d="M123.088 185.094C124.562 184.762 126.077 184.387 127.289 183.484C128.816 182.347 129.662 180.53 130.356 178.758C138.076 159.07 133.709 135.181 119.521 119.498C117.726 125.062 114.454 130.142 110.13 134.078C111.956 122.454 108.74 110.125 101.468 100.874C95.864 93.744 88.184 88.592 80.638 83.562C88.738 101.041 87.012 122.7 76.244 138.675C77.129 131.31 74.149 123.898 69.665 117.989C65.181 112.08 59.276 107.431 53.441 102.851C59.055 120.796 54.259 140.086 51.172 158.634C49.806 166.842 49.34 176.656 53.875 183.728C60.018 192.38 106.433 188.842 123.087 185.093L123.088 185.094Z" fill="#f5a524" stroke="#010101" stroke-width="1.5" stroke-linecap="round" stroke-linejoin="round"></path>
<path d="M105.467 401.325C105.467 401.325 115.568 401.363 116.686 401.776C117.797 402.187 118.768 403.222 118.711 404.405C118.641 405.853 117.158 406.808 115.766 407.212C112.481 408.165 108.303 407.787 105.555 407.787C105.558 406.01 105.467 401.324 105.467 401.324V401.325Z" fill="#E3E3FF" stroke="#010101" stroke-width="1.5" stroke-linecap="round" stroke-linejoin="round"></path>
<path d="M105.845 415.297C105.845 415.297 115.946 415.335 117.064 415.748C118.175 416.159 119.146 417.194 119.089 418.377C119.019 419.825 117.536 420.78 116.144 421.184C112.859 422.137 108.681 421.759 105.933 421.759C105.936 419.982 105.845 415.296 105.845 415.296V415.297Z" fill="#E3E3FF" stroke="#010101" stroke-width="1.5" stroke-linecap="round" stroke-linejoin="round"></path>
<path d="M39.515 314.279C1.20001 322.044 6.25901 362.137 6.81601 368.866C10.875 417.915 47.342 417.763 80.93 416.584C80.912 412.274 81.272 413.251 81.255 408.941C32.555 415.344 18.65 392.355 16.361 377.217C14.496 364.878 6.47601 331.071 42.156 321.293C41.065 316.544 42.32 314.375 39.515 314.279Z" fill="#006FEE" stroke="#010101" stroke-width="1.5" stroke-linecap="round" stroke-linejoin="round"></path>
<path d="M108.3 426.401C103.177 426.63 98.054 426.859 92.931 427.088C88.986 427.264 84.805 427.388 81.363 425.453C77.727 423.409 75.552 419.25 75.347 415.084C75.142 410.918 76.726 406.797 79.174 403.42C80.317 401.844 81.678 400.38 83.381 399.437C85.768 398.114 88.596 397.922 91.321 397.76C96.343 397.46 102.687 397.727 107.608 397.428C108.399 409.858 107.739 417.581 108.3 426.401Z" fill="#006FEE" stroke="#010101" stroke-width="1.5" stroke-linecap="round" stroke-linejoin="round"></path>
<path d="M141.089 396.913C146.498 391.776 151.906 386.638 157.315 381.501C157.15 388.955 156.986 396.409 156.821 403.863C162.989 402.544 169.278 401.792 175.583 401.62C172.337 406.783 168.435 411.534 164.001 415.721C167.658 417.41 171.315 419.099 174.972 420.787" stroke="#010101" stroke-width="1.5" stroke-linecap="round" stroke-linejoin="round"></path>
<path d="M326.819 355.24L34.475 353.59L45.214 199.582L340.556 199.388L326.819 355.24Z" fill="white" stroke="#010101" stroke-width="1.5" stroke-linecap="round" stroke-linejoin="round"></path>
<path d="M340.556 199.388L342.189 173.453L47.264 172.945L45.214 199.582L340.556 199.388Z" fill="#010101" stroke="#010101" stroke-width="1.5" stroke-linecap="round" stroke-linejoin="round"></path>
<path d="M314.528 181.789C313.252 183.459 312.926 185.734 313.04 187.833C313.154 189.932 314.023 192.021 315.59 193.421C316.584 194.31 317.814 194.896 319.071 195.341C321.136 196.072 323.366 196.455 325.528 196.101C327.69 195.747 329.774 194.594 330.957 192.75C332.468 190.394 333.525 186.436 331.146 181.95C329.835 179.477 321.528 172.627 314.528 181.789Z" fill="white" stroke="#010101" stroke-width="1.5" stroke-linecap="round" stroke-linejoin="round"></path>
<path d="M317.457 192.026C320.565 188.337 323.593 185.879 327.027 182.492Z" fill="white"></path>
<path d="M317.457 192.026C320.565 188.337 323.593 185.879 327.027 182.492" stroke="#010101" stroke-width="1.5" stroke-linecap="round" stroke-linejoin="round"></path>
<path d="M317.457 182.492C321.064 186.419 323.564 188.782 327.796 192.026Z" fill="white"></path>
<path d="M317.457 182.492C321.064 186.419 323.564 188.782 327.796 192.026" stroke="#010101" stroke-width="1.5" stroke-linecap="round" stroke-linejoin="round"></path>
<path d="M170.075 221.37C154.516 241.69 141.879 264.059 129.298 286.345C125.443 293.173 121.584 300.009 118.229 307.096C116.476 310.798 114.84 314.651 114.512 318.734C114.184 322.816 115.359 327.214 118.452 329.9C122.245 333.194 127.418 335.387 138.807 335.387C177.872 335.387 195.64 335.663 243.563 335.663C256.733 335.663 269.562 327.569 257.199 306.08C249.955 293.489 242.433 281.082 234.076 269.201C228.75 261.63 223.424 254.058 218.099 246.487C213.112 239.397 208.124 232.306 202.992 225.32C200.207 221.529 195.095 215.643 191.362 212.781C189.862 211.631 188.143 210.615 186.254 210.53C184.582 210.455 182.975 211.115 181.432 211.764C175.252 214.36 171.423 219.611 170.076 221.371L170.075 221.37Z" fill="#f5a524" stroke="#010101" stroke-width="1.5" stroke-linecap="round" stroke-linejoin="round"></path>
<path d="M175.621 239.82C177.311 261.647 178.404 283.521 179.599 305.28C184.417 305.357 193.192 304.124 193.192 304.124L197.176 238.757C197.176 238.757 184.335 238.387 175.62 239.82H175.621Z" fill="#010101" stroke="#010101" stroke-width="1.5" stroke-linecap="round" stroke-linejoin="round"></path>
<path d="M185.608 313.172C183.262 313.093 180.933 314.518 179.935 316.642C179.345 317.897 179.204 319.334 179.381 320.71C179.502 321.648 179.774 322.583 180.303 323.367C181.857 325.67 185.187 326.051 187.851 325.266C188.8 324.986 189.731 324.58 190.471 323.922C192.203 322.383 192.54 319.645 191.614 317.521C190.688 315.397 188.783 313.278 185.608 313.171V313.172Z" fill="#010101" stroke="#010101" stroke-width="1.5" stroke-linecap="round" stroke-linejoin="round"></path>
<path d="M634.83 469.228C643.101 449.97 649.205 429.724 652.13 408.97C653.203 401.359 653.395 392.446 647.658 387.33C644.46 384.478 639.901 383.455 635.648 383.977C631.395 384.499 627.421 386.433 623.902 388.878C612.063 397.104 605.256 410.623 598.924 423.574C591.983 437.77 584.292 453.716 576.344 468.966C593.99 469.887 613.792 469.228 634.83 469.228Z" fill="#55D087" stroke="#010101" stroke-width="1.5" stroke-linecap="round" stroke-linejoin="round"></path>
<path d="M592.334 470.125C595.343 454.644 600.248 439.602 603.95 424.272C607.652 408.942 610.156 393.069 608.241 377.416C607.61 372.262 606.114 366.587 601.674 363.893C597.949 361.633 593.108 362.168 589.082 363.834C582.999 366.351 578.139 371.111 573.81 376.07C559.04 392.994 548.73 413.292 539.353 433.703C533.823 445.739 548.563 457.896 543.958 470.469C565.202 469.466 566.473 469.026 592.334 470.125Z" fill="#55D087" stroke="#010101" stroke-width="1.5" stroke-linecap="round" stroke-linejoin="round"></path>
<path d="M612.239 469.456C618.832 446.1 629.039 419.58 640.86 384.128" stroke="#010101" stroke-width="1.5" stroke-linecap="round" stroke-linejoin="round"></path>
<path d="M562.108 469.483C570.895 439.389 584.109 400.609 598.267 362.611" stroke="#010101" stroke-width="1.5" stroke-linecap="round" stroke-linejoin="round"></path>
<path d="M564.393 388.162C569.43 396.767 574.542 405.327 579.73 413.841" stroke="#010101" stroke-width="1.5" stroke-linecap="round" stroke-linejoin="round"></path>
<path d="M573.602 433.708C584.083 429.877 594.424 425.665 604.6 421.084" stroke="#010101" stroke-width="1.5" stroke-linecap="round" stroke-linejoin="round"></path>
<path d="M622.599 437.382C631.419 433.335 640.297 429.414 649.229 425.62" stroke="#010101" stroke-width="1.5" stroke-linecap="round" stroke-linejoin="round"></path>
<path d="M613.729 399.052C618.582 406.755 623.275 414.559 627.803 422.457" stroke="#010101" stroke-width="1.5" stroke-linecap="round" stroke-linejoin="round"></path>
<path d="M310.814 441.946C306.283 449.072 301.668 456.841 300.017 457.835C296.667 459.853 283.173 464.907 280.939 466.429C280.29 466.871 279.579 467.574 279.842 468.314C280.093 469.019 281.017 469.148 281.765 469.159C298.558 469.4 312.851 469.141 329.643 469.382C331.177 464.997 335.875 454.716 337.741 447.133C327.78 445.336 317.819 443.539 310.814 441.946Z" fill="white" stroke="#010101" stroke-width="1.5" stroke-linecap="round" stroke-linejoin="round"></path>
<path d="M550.331 433.35L562.15 432.079C562.994 431.988 563.869 431.901 564.672 432.174C566.19 432.69 567 434.299 567.666 435.758C571.132 443.34 575.042 450.963 581.207 456.574C585.27 460.272 590.143 462.937 594.927 465.638C596.092 466.296 597.302 467.002 598.011 468.136C598.256 468.528 598.41 469.098 598.069 469.41C597.899 469.566 597.654 469.604 597.425 469.633C589.514 470.643 581.504 469.703 573.533 469.487C567.27 469.317 561.002 469.594 554.738 469.483C554.179 469.473 553.56 469.435 553.167 469.037C552.925 468.792 552.814 468.45 552.715 468.12C549.4 457.134 550.249 445.38 550.331 433.35Z" fill="white" stroke="#010101" stroke-width="1.5" stroke-linecap="round" stroke-linejoin="round"></path>
<path d="M344.015 239.695C342.778 241.251 340.074 240.643 338.906 239.034C337.738 237.425 337.606 235.289 337.692 233.302C338.317 218.798 338.307 198.355 340.956 198.601C342.829 198.775 343.43 205.256 343.966 208.766C345.353 217.848 345.347 222.492 346.969 226.44C347.923 230.914 347.416 235.415 344.015 239.695Z" fill="white" stroke="#010101" stroke-width="1.5" stroke-linecap="round" stroke-linejoin="round"></path>
<path d="M337.977 226.238C338.104 223.106 338.233 219.965 338.729 216.869C338.801 216.421 338.883 215.966 339.1 215.567C339.317 215.168 339.692 214.83 340.142 214.773C340.742 214.697 341.302 215.137 341.607 215.659C342.114 216.525 342.107 217.585 342.105 218.588C342.1 221.056 342.21 223.524 342.435 225.981" stroke="#010101" stroke-width="1.5" stroke-linecap="round" stroke-linejoin="round"></path>
<path d="M344.445 463.096C355.281 435.18 368.613 399.973 379.087 371.256C420.276 383.073 434.473 386.041 463.207 389.847C471.734 390.977 481.04 388.192 487.968 383.095C491.796 380.279 494.568 376.251 496.787 372.049C500.469 365.078 502.932 357.13 504.409 349.357C483.707 343.747 451.398 336.917 430.696 331.308C387.345 319.561 399.827 321.068 373.593 318.58C370.702 318.306 347.891 317.684 326.26 379.988C316.704 407.512 304.932 431.008 298.408 449.798C316.455 453.667 324.332 457.326 344.444 463.096H344.445Z" fill="#010101" stroke="#010101" stroke-width="1.5" stroke-linecap="round" stroke-linejoin="round"></path>
<path d="M489.466 369.665L474.833 422.93C474.833 422.93 523.751 428.194 553.778 427.429C555.134 441.449 556.629 455.368 558.535 469.23C515.56 470.324 495.351 470.379 455.285 469.915C431.324 469.637 427.909 456.724 426.424 435.698C425.131 417.39 431.051 395.935 429.222 378.383C430.933 375.223 489.465 369.663 489.465 369.663L489.466 369.665Z" fill="#010101" stroke="#010101" stroke-width="1.5" stroke-linecap="round" stroke-linejoin="round"></path>
<path d="M354.887 218.589C351.939 218.782 350.427 218.676 348.304 218.901C346.297 226.183 344.433 235.863 343.24 243.322C343.212 243.496 343.189 243.691 343.293 243.833C343.414 243.999 343.65 244.019 343.855 244.023C346.036 244.071 347.863 244.132 350.043 244.18" fill="white"></path>
<path d="M354.887 218.589C351.939 218.782 350.427 218.676 348.304 218.901C346.297 226.183 344.433 235.863 343.24 243.322C343.212 243.496 343.189 243.691 343.293 243.833C343.414 243.999 343.65 244.019 343.855 244.023C346.036 244.071 347.863 244.132 350.043 244.18" stroke="#010101" stroke-width="1.5" stroke-linecap="round" stroke-linejoin="round"></path>
<path d="M490.174 193.933C489.909 200.039 489.967 206.16 490.347 212.26C498.313 212.846 506.344 212.551 514.246 211.38C513.539 205.481 514.11 199.432 515.908 193.769C517.54 188.631 520.162 183.818 521.39 178.569C521.781 176.897 522.027 175.148 521.674 173.467C521.321 171.786 520.278 170.175 518.695 169.51C517.066 168.825 515.206 169.227 513.494 169.665C507.519 171.194 501.454 173.141 496.722 177.097C491.99 181.053 490.459 187.331 490.173 193.932L490.174 193.933Z" fill="white" stroke="#010101" stroke-width="1.5" stroke-linecap="round" stroke-linejoin="round"></path>
<path d="M482.281 158.718C479.08 165.129 474.936 169.938 470.559 175.163C472.927 176.812 475.294 178.461 477.662 180.111C480.591 182.151 483.567 184.216 486.94 185.385C490.312 186.554 494.191 186.733 497.34 185.052C499.105 184.11 500.536 182.649 501.806 181.103C503.979 178.458 505.786 175.448 506.631 172.131C507.476 168.814 507.294 165.163 505.696 162.136C502.98 156.992 496.492 154.566 490.758 155.544C487.845 156.041 485.016 157.331 482.281 158.718Z" fill="white" stroke="#010101" stroke-width="1.5" stroke-linecap="round" stroke-linejoin="round"></path>
<path d="M574.046 16.466C569.812 12.147 563.542 10.231 557.495 10.348C551.448 10.465 545.575 12.433 540.081 14.962C527.33 20.833 515.178 31.418 513.802 45.388C513.063 52.887 515.668 60.576 520.489 66.368C525.311 72.159 532.237 76.065 539.609 77.628C537.832 82.551 540.158 88.038 543.302 92.222C548.793 99.53 557.123 104.827 566.197 105.94C575.27 107.053 584.943 103.714 590.855 96.742C591.298 99.901 594.621 101.701 597.581 102.889C605.425 106.036 613.839 108.458 622.24 107.543C630.641 106.627 639.031 101.758 642.12 93.892C654.355 98.982 669.588 95.711 678.655 86.047C687.722 76.383 690.015 60.972 684.155 49.086C678.295 37.2 664.674 29.636 651.487 30.943C653.124 19.149 645.797 6.70197 634.689 2.41097C623.582 -1.88003 609.79 2.40697 603.072 12.239C601.66 4.33497 579.01 3.20697 574.046 16.466Z" fill="#E3E3FF" stroke="#010101" stroke-width="1.5" stroke-linecap="round" stroke-linejoin="round"></path>
<path d="M555.876 39.668C552.72 40.346 550.163 42.803 548.674 45.667C547.185 48.531 546.629 51.782 546.281 54.991C545.843 59.031 545.718 63.215 547.049 67.055C548.38 70.894 551.425 74.35 555.402 75.183C558.47 75.825 561.787 74.8 564.117 72.705C566.447 70.61 568.162 66.264 568.603 63.61C569.387 58.891 568.81 49.655 565.268 44.513C563.124 41.4 558.624 39.077 555.876 39.668Z" fill="white" stroke="#010101" stroke-width="1.5" stroke-linecap="round" stroke-linejoin="round"></path>
<path d="M556.939 44.799C551.915 44.799 551.1 52.652 550.745 55.657C550.502 57.716 550.385 61.559 550.77 63.596C551.155 65.633 552.084 67.62 553.655 68.973C555.225 70.326 557.489 70.952 559.45 70.281C560.98 69.757 562.19 68.513 562.939 67.08C563.688 65.647 563.902 64.695 564.208 62.426C565.409 53.515 561.541 44.799 556.939 44.799Z" fill="#E3E3FF" stroke="#010101" stroke-width="1.5" stroke-linecap="round" stroke-linejoin="round"></path>
<path d="M582.559 39.668C579.403 40.346 576.846 42.803 575.357 45.667C573.868 48.531 573.312 51.782 572.964 54.991C572.526 59.031 572.401 63.215 573.732 67.055C575.063 70.895 578.108 74.35 582.085 75.183C585.153 75.825 588.47 74.8 590.8 72.705C593.131 70.61 594.845 66.264 595.286 63.61C596.07 58.891 595.493 49.655 591.951 44.513C589.807 41.4 585.307 39.077 582.559 39.668Z" fill="white" stroke="#010101" stroke-width="1.5" stroke-linecap="round" stroke-linejoin="round"></path>
<path d="M583.622 44.799C579.247 44.469 577.771 52.748 577.428 55.657C577.185 57.716 577.068 61.559 577.453 63.596C577.838 65.633 578.767 67.62 580.338 68.973C581.908 70.326 584.172 70.952 586.133 70.281C587.663 69.757 588.873 68.513 589.622 67.08C590.372 65.647 590.703 64.032 590.891 62.426C591.249 59.353 591.084 54.534 590.253 51.553C589.403 48.504 587.555 45.096 583.622 44.799Z" fill="#E3E3FF" stroke="#010101" stroke-width="1.5" stroke-linecap="round" stroke-linejoin="round"></path>
<path d="M600.563 73.545C600.543 62.162 600.514 51.609 600.682 40.363C604.36 39.586 611.298 39.546 614.124 40.591C616.587 41.502 618.228 43.793 619.428 46.13C620.628 48.466 620.616 51.49 619.05 53.599C617.549 55.622 612.948 58.34 605.476 58.34C605.476 64.052 605.28 68.283 605.28 73.547C604.697 73.814 601.914 73.777 600.562 73.547L600.563 73.545Z" fill="white" stroke="#010101" stroke-width="1.5" stroke-linecap="round" stroke-linejoin="round"></path>
<path d="M605.294 54.259C605.091 50.888 604.968 47.513 605.017 44.518C606.965 44.087 609.972 43.972 611.829 44.703C613.061 45.188 614.085 46.177 614.613 47.391C615.319 49.016 615.075 51.337 613.77 52.535C612.11 54.058 608.109 54.053 605.294 54.259Z" fill="#E3E3FF" stroke="#010101" stroke-width="1.5" stroke-linecap="round" stroke-linejoin="round"></path>
<path d="M650.408 67.973C649.429 58.819 649.228 49.874 648.852 40.702C651.159 40.474 653.465 40.735 655.772 40.507C655.626 45.569 654.743 62.178 655.076 67.88C653.044 68.002 649.959 68.183 650.408 67.973Z" fill="white" stroke="#010101" stroke-width="1.5" stroke-linecap="round" stroke-linejoin="round"></path>
<path d="M652.828 70.905C652.26 70.911 651.698 71.154 651.305 71.564C650.818 72.071 650.609 72.863 650.882 73.511C651.107 74.044 651.628 74.423 652.195 74.538C652.762 74.653 653.362 74.522 653.867 74.242C654.387 73.954 655.033 73.515 654.729 72.275C654.473 71.233 653.396 70.899 652.828 70.905Z" fill="white" stroke="#010101" stroke-width="1.5" stroke-linecap="round" stroke-linejoin="round"></path>
<path d="M641.83 39.993C638.194 39.553 631.271 39.596 627.649 42.638C625.489 44.453 623.778 48.612 624.182 51.405C624.407 52.959 625.289 54.353 626.37 55.491C627.746 56.94 629.464 58.045 631.312 58.805C632.864 59.444 634.529 59.855 635.94 60.763C637.351 61.671 638.501 63.267 638.247 64.926C638.073 66.061 637.263 67.024 636.288 67.63C635.313 68.236 634.179 68.532 633.054 68.768C630.178 69.371 627.23 69.634 624.293 69.549C624.222 70.851 624.337 72.164 624.634 73.434C628.344 74.019 632.123 73.209 635.759 72.265C637.186 71.895 638.635 71.491 639.865 70.677C641.643 69.5 642.797 67.56 643.474 65.538C643.82 64.506 644.058 63.419 643.983 62.333C643.787 59.512 641.519 57.235 639.03 55.893C636.541 54.551 633.743 53.875 631.213 52.611C630.105 52.057 628.978 51.304 628.568 50.135C627.86 48.114 630.931 42.81 642.438 44.204C642.258 43.133 641.989 40.798 641.831 39.994L641.83 39.993Z" fill="white" stroke="#010101" stroke-width="1.5" stroke-linecap="round" stroke-linejoin="round"></path>
<path d="M474.405 177.236C473.308 180.764 472.855 184.46 472.613 188.147C472.326 192.523 472.601 197.54 475.973 200.344C477.958 201.994 480.64 202.51 483.213 202.73C486.055 202.974 488.922 202.927 491.754 202.592C493.56 202.378 495.372 202.041 497.032 201.3C501.435 199.335 504.165 194.819 505.724 190.257C507.283 185.695 507.954 180.85 509.734 176.369C511.731 175.363 514.355 175.964 515.846 177.631C517.337 179.298 517.674 181.848 516.832 183.92C515.99 185.992 514.07 187.546 511.91 188.123C512.674 192.961 513.24 197.83 514.042 202.986C517.122 197.639 520.202 192.292 523.282 186.946C525.662 182.814 528.054 178.659 529.733 174.196C531.412 169.733 532.362 164.906 531.752 160.177C531.161 155.6 528.815 150.953 524.653 148.958C522.815 148.077 520.761 147.769 518.735 147.547C515.216 147.162 511.672 147.007 508.133 147.082C505.261 147.143 502.35 147.353 499.544 146.738C496.039 145.969 492.95 143.971 489.672 142.512C486.394 141.053 482.541 140.142 479.269 141.614C476.426 142.893 474.504 145.988 474.619 149.104C474.682 150.81 475.297 152.453 476.099 153.96C477.528 156.646 479.578 158.999 481.984 161.193C486.543 161.238 491.097 161.816 495.523 162.91C496.981 163.27 498.481 163.716 499.6 164.717C501.09 166.05 501.648 168.127 501.935 170.105C502.281 172.486 502.27 175.143 500.758 177.015C498.939 179.267 495.667 179.57 492.773 179.58C485.999 179.605 479.222 179.004 474.405 177.236Z" fill="#010101" stroke="#010101" stroke-width="1.5" stroke-linecap="round" stroke-linejoin="round"></path>
<path d="M458.688 244.145C448.924 274.758 439.16 299.602 428.856 330.808C432.799 331.436 439.916 334.087 443.859 334.716C447.427 335.285 447.907 339.6 451.457 338.925C454.651 338.317 457.589 336.725 460.19 334.772C466.635 329.934 471.178 322.874 473.99 315.322C476.802 307.77 477.983 299.707 478.622 291.674C479.954 274.904 478.986 257.953 475.754 241.443C469.381 243.378 462.791 244.597 458.689 244.146L458.688 244.145Z" fill="white" stroke="#010101" stroke-width="1.5" stroke-linecap="round" stroke-linejoin="round"></path>
<path d="M519.121 210.843C518.587 207.995 518.173 205.124 517.879 202.241C507.881 203.031 497.374 204.285 486.935 205.96C485.809 209.19 484.742 211.935 483.477 215.263C494.964 213.627 506.532 212.563 519.121 210.843Z" fill="#006FEE" stroke="#010101" stroke-width="1.5" stroke-linecap="round" stroke-linejoin="round"></path>
<path d="M467.869 239.912C458.023 276.597 446.475 300.368 441.423 341.061C463.177 345.754 481.692 357.045 504.31 350.441C508.482 331.233 514.622 301.519 518.987 278.526C523.352 255.533 526.838 233.326 519.12 210.844C511.313 210.611 491.61 210.725 490.407 211.194C488.727 211.848 487.265 212.948 485.827 214.035C483.127 216.075 480.417 218.124 478.009 220.502C472.777 225.668 469.85 232.531 467.869 239.912Z" fill="#006FEE" stroke="#010101" stroke-width="1.5" stroke-linecap="round" stroke-linejoin="round"></path>
<path d="M517.3 227.596C516.976 220.988 515.863 216.875 510.549 213.965C495.696 205.832 382.756 213.979 355.462 215.665C353.008 228.178 351.2 236.548 349.383 248.304C395.288 247.241 447.196 246.647 493.113 246.701" fill="#006FEE"></path>
<path d="M517.3 227.596C516.976 220.988 515.863 216.875 510.549 213.965C495.696 205.832 382.756 213.979 355.462 215.665C353.008 228.178 351.2 236.548 349.383 248.304C395.288 247.241 447.196 246.647 493.113 246.701" stroke="#010101" stroke-width="1.5" stroke-linecap="round" stroke-linejoin="round"></path>
<path d="M424.296 385.653C432.498 387.356 456.707 390.953 465.082 390.781C473.457 390.61 482.05 388.388 488.479 383.017" stroke="white" stroke-width="1.5" stroke-linecap="round" stroke-linejoin="round"></path>
<path d="M2.268 287.63C1.004 288.027 0.375002 289.701 0.987002 290.876C1.599 292.051 3.232 292.518 4.418 291.927C5.595 291.341 6.207 289.773 5.646 288.584C5.085 287.395 3.537 287.231 2.268 287.63Z" fill="#010101" stroke="#010101" stroke-width="1.5" stroke-linecap="round" stroke-linejoin="round"></path>
<path d="M556.785 328.556C556.675 328.59 556.621 328.736 556.674 328.838C556.727 328.94 556.869 328.98 556.972 328.929C557.074 328.878 557.127 328.742 557.079 328.639C557.031 328.536 556.896 328.522 556.786 328.556H556.785Z" fill="#010101" stroke="#010101" stroke-width="1.5" stroke-linecap="round" stroke-linejoin="round"></path>
<path d="M8.633 183.398C12.186 184.21 15.739 185.022 19.292 185.834" stroke="#010101" stroke-width="1.5" stroke-linecap="round" stroke-linejoin="round"></path>
<path d="M281.326 390.565C281.415 393.464 282.503 396.363 282.592 399.261" stroke="#010101" stroke-width="1.5" stroke-linecap="round" stroke-linejoin="round"></path>
</g>
<defs>
<clipPath id="clip0_35_1181">
<rect width="688.129" height="471.22" fill="white"></rect>
</clipPath>
</defs>
</svg>