<svg id="visual" viewBox="0 0 960 540" width="960" height="540" xmlns="http://www.w3.org/2000/svg" xmlns:xlink="http://www.w3.org/1999/xlink" version="1.1"><rect x="0" y="0" width="960" height="540" fill="#fff"></rect><defs><linearGradient id="grad1_0" x1="43.8%" y1="0%" x2="100%" y2="100%"><stop offset="14.444444444444446%" stop-color="#ffffff" stop-opacity="1"></stop><stop offset="85.55555555555554%" stop-color="#ffffff" stop-opacity="1"></stop></linearGradient></defs><defs><linearGradient id="grad2_0" x1="0%" y1="0%" x2="56.3%" y2="100%"><stop offset="14.444444444444446%" stop-color="#ffffff" stop-opacity="1"></stop><stop offset="85.55555555555554%" stop-color="#ffffff" stop-opacity="1"></stop></linearGradient></defs><g transform="translate(960, 0)"><path d="M0 351C-32.7 313.4 -65.4 275.9 -108.7 262.4C-152 248.9 -206 259.5 -239.7 239.7C-273.5 219.9 -287 169.8 -301.2 124.8C-315.4 79.7 -330.2 39.9 -345 0L0 0Z" fill="#11181c"></path></g><g transform="translate(0, 540)"><path d="M0 -291C36.6 -290.7 73.2 -290.4 119 -287.3C164.8 -284.3 219.9 -278.4 248.2 -248.2C276.5 -218 278 -163.3 284.6 -117.9C291.1 -72.4 302.5 -36.2 314 0L0 0Z" fill="#11181c"></path></g></svg>