<svg id="Layer_2" data-name="Layer 2" xmlns="http://www.w3.org/2000/svg" viewBox="0 0 745.305 749.688" style="width: 100%; height: 100%;">
  <g id="Layer_1-2" data-name="Layer 1">
    <g>
      <g>
        <path d="m508.332,503.807c0-18.019,14.607-32.626,32.626-32.626s32.626,14.607,32.626,32.626c0,1.142-.06,2.269-.174,3.381,8.626,2.927,14.837,11.087,14.837,20.703,0,10.174-6.949,18.723-16.36,21.164,2.647,3.027,4.254,6.987,4.254,11.324,0,6.191-3.27,11.617-8.175,14.651,1.993,2.74,3.171,6.11,3.171,9.757,0,9.172-7.436,16.608-16.608,16.608-8.031,0-14.73-5.7-16.273-13.276-.077.001-.154.006-.231.006-9.115,0-16.505-7.389-16.505-16.505,0-8.172,5.941-14.953,13.739-16.269-2.088-2.469-3.349-5.659-3.349-9.145,0-3.968,1.632-7.552,4.259-10.125-15.748-2.317-27.838-15.881-27.838-32.273Z"></path>
        <rect x="533.426" y="581.049" width="25.395" height="25.395" fill="#fff" stroke="#000" stroke-linecap="round" stroke-linejoin="round" stroke-width="1.5"></rect>
        <path d="m473.556,402.794v231.572c0,13.254,10.745,23.999,23.999,23.999h0c13.254,0,23.999-10.745,23.999-23.999v-40.356h7.286" fill="none" stroke="#000" stroke-linecap="round" stroke-linejoin="round" stroke-width="1.5"></path>
        <path d="m477.555,402.794l19.405,44.205c2.166,4.934-1.448,10.468-6.837,10.468h-53.067c0-3.686,2.988-6.673,6.673-6.673h15.67c5.038,0,8.63-4.886,7.127-9.694l-11.971-38.306" stroke="#000" stroke-linecap="round" stroke-linejoin="round" stroke-width="1.5"></path>
        <path d="m472.555,402.794l19.405,44.205c2.166,4.934-1.448,10.468-6.837,10.468h-53.067c0-3.686,2.988-6.673,6.673-6.673h15.67c5.038,0,8.63-4.886,7.127-9.694l-11.971-38.306" fill="#fff" stroke="#000" stroke-linecap="round" stroke-linejoin="round" stroke-width="1.5"></path>
        <g>
          <rect x="419.555" y="448.794" width="8" height="6" rx="3" ry="3" fill="#fff" stroke="#000" stroke-linecap="round" stroke-linejoin="round" stroke-width="1.5"></rect>
          <rect x="429.555" y="448.794" width="8" height="6" rx="3" ry="3" fill="#fff" stroke="#000" stroke-linecap="round" stroke-linejoin="round" stroke-width="1.5"></rect>
          <rect x="439.555" y="448.794" width="8" height="6" rx="3" ry="3" fill="#fff" stroke="#000" stroke-linecap="round" stroke-linejoin="round" stroke-width="1.5"></rect>
          <rect x="343.555" y="448.794" width="8" height="6" rx="3" ry="3" fill="#fff" stroke="#000" stroke-linecap="round" stroke-linejoin="round" stroke-width="1.5"></rect>
          <rect x="333.555" y="448.794" width="8" height="6" rx="3" ry="3" fill="#fff" stroke="#000" stroke-linecap="round" stroke-linejoin="round" stroke-width="1.5"></rect>
          <rect x="353.555" y="448.794" width="8" height="6" rx="3" ry="3" fill="#fff" stroke="#000" stroke-linecap="round" stroke-linejoin="round" stroke-width="1.5"></rect>
          <rect x="403.555" y="448.794" width="8" height="6" rx="3" ry="3" fill="#fff" stroke="#000" stroke-linecap="round" stroke-linejoin="round" stroke-width="1.5"></rect>
          <path d="m398.555,454.794h-2c-1.657,0-33-1.343-33-3h0c0-1.657,1.343-3,3-3h32c1.657,0,3,1.343,3,3h0c0,1.657-1.343,3-3,3Z" fill="#fff" stroke="#000" stroke-linecap="round" stroke-linejoin="round" stroke-width="1.5"></path>
          <rect x="333.555" y="450.794" width="127" height="7" rx="3.5" ry="3.5" stroke="#000" stroke-linecap="round" stroke-linejoin="round" stroke-width="1.5"></rect>
          <rect x="327.555" y="450.794" width="127" height="7" rx="3.5" ry="3.5" fill="#fff" stroke="#000" stroke-linecap="round" stroke-linejoin="round" stroke-width="1.5"></rect>
        </g>
        <path d="m372.112,268.794h166.261c6.316,0,11.443,5.127,11.443,11.443v116.722c0,9.292-7.544,16.835-16.835,16.835h-155.476c-9.292,0-16.835-7.544-16.835-16.835v-116.722c0-6.316,5.127-11.443,11.443-11.443Z" stroke="#000" stroke-linecap="round" stroke-linejoin="round" stroke-width="1.5"></path>
        <g>
          <rect x="179.18" y="457.467" width="501.074" height="17.992" stroke="#000" stroke-linecap="round" stroke-linejoin="round" stroke-width="1.5"></rect>
          <g>
            <line x1="553.84" y1="477.161" x2="600.302" y2="747.589" fill="none" stroke="#000" stroke-linecap="round" stroke-linejoin="round" stroke-width="1.5"></line>
            <line x1="155.595" y1="477.161" x2="103.807" y2="748.938" fill="none" stroke="#000" stroke-linecap="round" stroke-linejoin="round" stroke-width="1.5"></line>
          </g>
          <g>
            <line x1="653.84" y1="477.161" x2="705.302" y2="747.589" fill="none" stroke="#000" stroke-linecap="round" stroke-linejoin="round" stroke-width="1.5"></line>
            <line x1="255.595" y1="477.161" x2="208.807" y2="748.938" fill="none" stroke="#000" stroke-linecap="round" stroke-linejoin="round" stroke-width="1.5"></line>
          </g>
          <rect x="129.18" y="457.467" width="441.074" height="17.992" fill="#fff" stroke="#000" stroke-linecap="round" stroke-linejoin="round" stroke-width="1.5"></rect>
        </g>
        <path d="m366.112,268.794h166.261c6.316,0,11.443,5.127,11.443,11.443v116.722c0,9.292-7.544,16.835-16.835,16.835h-155.476c-9.292,0-16.835-7.544-16.835-16.835v-116.722c0-6.316,5.127-11.443,11.443-11.443Z" fill="#fff" stroke="#000" stroke-linecap="round" stroke-linejoin="round" stroke-width="1.5"></path>
        <rect x="360.242" y="274.294" width="178" height="113.219" rx="7" ry="7" fill="#fff" stroke="#000" stroke-linecap="round" stroke-linejoin="round" stroke-width="1.5"></rect>
        <line x1=".75" y1="747.794" x2="744.555" y2="747.794" fill="none" stroke="#000" stroke-linecap="round" stroke-linejoin="round" stroke-width="1.5"></line>
        <path d="m536.84,585.799h10.673v16h-10.673c-4.415,0-8-3.585-8-8h0c0-4.415,3.585-8,8-8Z" fill="#fff" stroke="#000" stroke-linecap="round" stroke-linejoin="round" stroke-width="1.5"></path>
        <line x1="547.512" y1="590.149" x2="551.512" y2="590.149" fill="none" stroke="#000" stroke-linecap="round" stroke-linejoin="round" stroke-width="1.5"></line>
        <line x1="547.512" y1="597.449" x2="551.512" y2="597.449" fill="none" stroke="#000" stroke-linecap="round" stroke-linejoin="round" stroke-width="1.5"></line>
        <path d="m558.551,131.889c0-44.192-35.824-80.016-80.016-80.016s-80.016,35.824-80.016,80.016c0,2.8.146,5.566.427,8.292-21.156,7.179-36.387,27.191-36.387,50.774,0,24.951,17.043,45.919,40.122,51.904-6.491,7.425-10.433,17.135-10.433,27.772,0,15.184,8.019,28.491,20.048,35.932-4.887,6.719-7.777,14.984-7.777,23.928,0,22.495,18.236,40.732,40.732,40.732,19.696,0,36.126-13.98,39.911-32.559.189.003.377.014.567.014,22.355,0,40.478-18.122,40.478-40.478,0-20.042-14.57-36.672-33.694-39.901,5.12-6.054,8.213-13.878,8.213-22.428,0-9.731-4.003-18.522-10.446-24.832,38.623-5.682,68.272-38.949,68.272-79.15Z"></path>
        <g>
          <path d="m33.677,684.919l-15.975,30.855,56.842,30.716,21.626.872s11.735-12.266-10.214-19.372c-13.904-7.235-5.708-20.552-5.708-20.552" fill="#fff" stroke="#000" stroke-linecap="round" stroke-linejoin="round" stroke-width="1.5"></path>
          <path d="m178.986,717.362l-1.932,30,85.206-.132s9.273-20.239-15.283-20.255c-15.557-.01-17.495-15.406-17.495-15.406" fill="#fff" stroke="#000" stroke-linecap="round" stroke-linejoin="round" stroke-width="1.5"></path>
          <path d="m281.072,517.515l-.257-.753-64.159-188-70.98,24.224,61.231,179.419-33.592,187.814,65.918.728,43.076-185.866c1.054-5.634.748-11.755-1.235-17.566Z"></path>
          <path d="m91.303,717.185l-72.491-29.234,76.872-166.652,8.58-98.582s3.672-69.373,12.676-85.704c9.113-16.531,82.469,2.348,82.469,2.348l-30.149,197.089-77.956,180.736Z"></path>
          <g>
            <path d="m302.415,175.055s-7.787-16.409-11.932-23.096c-7.148-11.534-12.139-17.765-17.035-18.319-1.047-.118-3.493.679,1.695,5.696,3.074,2.973,4.203,11.845,4.203,11.845" fill="#fff" stroke="#000" stroke-linecap="round" stroke-linejoin="round" stroke-width="1.5"></path>
            <path d="m282.067,197.853s-10.858-19.95-14.86-26.368c-3.953-6.339-9.29-11.28-8.188-13.647,2.028-4.355,14.602,8.101,17.485,13.08" fill="#fff" stroke="#000" stroke-linecap="round" stroke-linejoin="round" stroke-width="1.5"></path>
            <polygon points="301.62 189.77 282.881 191.281 268.785 164.435 269.137 149.24 283.093 143.35 301.62 189.77" fill="#fff"></polygon>
            <path d="m281.577,148.683c-3.276-8.07-12.58-16.121-14.659-16.853-2.297-.808-4.106,1.718-.771,4.873,1.324,1.253,2.252,3.321,4.336,5.331" fill="#fff" stroke="#000" stroke-linecap="round" stroke-linejoin="round" stroke-width="1.5"></path>
            <path d="m276.831,151.483c-3.247-6.738-7.272-12.653-11.092-15.558-1.157-.88-3.471-2.579-4.776-2.46-3.221.294-.452,4.583,2.812,8.158" fill="#fff" stroke="#000" stroke-linecap="round" stroke-linejoin="round" stroke-width="1.5"></path>
            <path d="m271.084,169.364s-5.383-13.296-12.559-28.217c-.459-.955-.05-4.29,3.63-1.608,4.652,3.391,9.309,14.936,9.309,14.936" fill="#fff" stroke="#000" stroke-linecap="round" stroke-linejoin="round" stroke-width="1.5"></path>
          </g>
          <g>
            <g>
              <circle cx="220.515" cy="143.682" r="31.116"></circle>
              <path d="m197.999,154.819s16.313-26.988,32.783-26.25c12.383.555,16.603,7.409,22.182,17.648,2.952,5.418,1.205,36.635-3.156,43.216-2.916,4.401-7.999,7.262-16.095,8.344l-.887,18.187s.614,16.965-18.585,16.115c-21.667-.959-18.78-18.517-18.78-18.517l2.538-58.743Z" fill="#fff" stroke="#000" stroke-linecap="round" stroke-linejoin="round" stroke-width="1.5"></path>
              <polyline points="207.527 151.551 207.207 152.53 203.514 163.827 198.212 164.501 195.181 156.8 196.511 143.356 207.145 141.508"></polyline>
              <path d="m202.792,175.972c-4.738-.644-8.049-5.059-7.396-9.86.625-4.595,4.656-7.869,9.154-7.578" fill="#fff" stroke="#000" stroke-linecap="round" stroke-linejoin="round" stroke-width="1.5"></path>
              <path d="m267.282,144.054l-48.496-1.256s2.21,12.008-9.006,17.002l-1.906,8.379-3.618-.162-1.544-14.03,4.094-30.047,26.923-7.955,27.018,10.371,6.536,17.698Z"></path>
              <circle cx="258.642" cy="131.678" r="20.134"></circle>
              <circle cx="236.246" cy="120.588" r="17.388"></circle>
              <path d="m233.516,197.776s-8.261,1.383-16.06-3.784" fill="#fff" stroke="#000" stroke-linecap="round" stroke-linejoin="round" stroke-width="1.5"></path>
            </g>
            <path d="m237.234,159.846l.02-.15c.012-.31-.053-.599-.194-.867-.091-.279-.246-.52-.465-.724-.204-.219-.445-.374-.724-.465-.268-.141-.557-.205-.867-.194l-.598.08c-.381.107-.712.3-.993.579l-.352.455c-.204.351-.306.729-.307,1.136l-.02.15c-.012.31.053.599.194.867.091.279.246.52.465.724.204.219.445.374.724.465.268.141.557.205.867.194l.598-.08c.381-.107.712-.3.993-.579l.352-.455c.204-.351.306-.729.307-1.136h0Z"></path>
            <path d="m255.283,161.561l.02-.15c.012-.31-.053-.599-.194-.867-.091-.279-.246-.52-.465-.724-.204-.219-.445-.374-.724-.465-.268-.141-.557-.205-.867-.194l-.598.08c-.381.107-.712.3-.993.579l-.352.455c-.204.351-.306.729-.307,1.136l-.02.15c-.012.31.053.599.194.867.091.279.246.52.465.724.204.219.445.374.724.465.268.141.557.205.867.194l.598-.08c.381-.107.712-.3.993-.579l.352-.455c.204-.351.306-.729.307-1.136h0Z"></path>
            <path d="m247.532,168.185l.788,4.28c.146.79-.559,1.475-1.345,1.308l-3.736-.796" fill="#fff" stroke="#000" stroke-linecap="round" stroke-linejoin="round" stroke-width="1.5"></path>
            <path d="m238.704,149.836s-5.346-2.052-8.221,1.444" fill="none" stroke="#000" stroke-linecap="round" stroke-linejoin="round" stroke-width="1.5"></path>
            <path d="m259.108,154.731s-3.559-4.485-7.813-2.937" fill="none" stroke="#000" stroke-linecap="round" stroke-linejoin="round" stroke-width="1.5"></path>
            <path d="m217.456,193.992l15.505,18.556.675-14.197s-4.36.353-9.138-1.168c-4.778-1.521-7.043-3.191-7.043-3.191Z" stroke="#000" stroke-linecap="round" stroke-linejoin="round" stroke-width="1.5"></path>
            <path d="m241.337,181.459s-2.228-4.07-7.554-2.061" fill="#fff" stroke="#000" stroke-linecap="round" stroke-linejoin="round" stroke-width="1.5"></path>
          </g>
          <g>
            <path d="m155.393,155.856s18.114-14.086,23.858-19.124c5.673-4.976,9.727-11.105,12.267-10.393,4.673,1.31-5.689,15.881-10.182,19.569" fill="#fff" stroke="#000" stroke-linecap="round" stroke-linejoin="round" stroke-width="1.5"></path>
            <path d="m185.207,136.463c11.571-7.35,18.85-10.825,23.546-9.176,1.005.353,2.879,2.153-4.045,4.437-4.103,1.353-9.029,8.928-9.029,8.928" fill="#fff" stroke="#000" stroke-linecap="round" stroke-linejoin="round" stroke-width="1.5"></path>
            <polygon points="175.286 177.342 155.728 161.282 180.188 142.841 191.241 134.776 207.688 132.066 214.217 142.23 175.286 177.342" fill="#fff"></polygon>
            <path d="m194.748,137.398c6.527-5.901,18.528-9.136,20.741-8.888,2.444.274,2.98,3.367-1.441,4.772-1.755.558-3.508,2.031-6.287,2.944" fill="#fff" stroke="#000" stroke-linecap="round" stroke-linejoin="round" stroke-width="1.5"></path>
            <path d="m197.106,142.81c5.915-4.702,12.176-8.314,16.927-9.277,1.439-.292,4.29-.821,5.426-.138,2.8,1.683-1.603,4.368-6.144,6.185" fill="#fff" stroke="#000" stroke-linecap="round" stroke-linejoin="round" stroke-width="1.5"></path>
            <path d="m185.512,172.137s20.432-20.706,33.517-31.124c.837-.667,1.931-3.88-2.595-3.058-5.722,1.04-15.032,9.495-15.032,9.495" fill="#fff" stroke="#000" stroke-linecap="round" stroke-linejoin="round" stroke-width="1.5"></path>
          </g>
          <path d="m333.393,291.9c-5.58,2.44-11.51,2.64-16.96,1.03,0,0-39.73-10.74-66.58-18-8.08,36.08-20.36,91.05-20.36,91.05l-113.1-28.41s9.07-32.02,15.57-59.31c1.75-7.33,4.49-18.27,7.42-29.08-21.5-2.36-43.61-4.79-43.61-4.79l-.71-.08c-22.61-2.56-29.92-31.63-11.66-44.69l83.27-59.39,26.63,35.14s-16.7,13.43-32.2,25.9l18.11,1.99v.01c4.99.25,10.52,1.2,16.56,3.02l-.31,7.27s-2.89,17.56,18.78,18.52c15.15.67,17.96-9.76,18.46-14.18l11.24,3.54c.24.09.46.2.7.29l37.98,10.27-19.73-53.12,40.89-16.5,42.35,97.06c5.45,12.48-.25,27.02-12.74,32.46Z" fill="#1b82fb" stroke="#000" stroke-linecap="round" stroke-linejoin="round" stroke-width="1.5"></path>
        </g>
        <circle cx="359.305" cy="73.268" r="31.75"></circle>
        <circle cx="411.555" cy="16.555" r="16.555"></circle>
        <line x1="161.103" y1="201.27" x2="134.931" y2="222.606" fill="#1b82fb" stroke="#000" stroke-linecap="round" stroke-linejoin="round" stroke-width="1.5"></line>
        <line x1="282.623" y1="232" x2="295.099" y2="263.65" fill="#1b82fb" stroke="#000" stroke-linecap="round" stroke-linejoin="round" stroke-width="1.5"></line>
      </g>
      <polyline points="524.302 259.089 546.124 215.994 549.816 253.105 582.112 237.542 568.097 268.794 597.528 287.119 563.192 292.024" fill="none" stroke="#000" stroke-linecap="round" stroke-linejoin="round" stroke-width="1.5"></polyline>
      <polyline points="349.196 413.166 336.356 438.524 334.183 416.688 315.18 425.845 323.426 407.456 306.109 396.674 326.313 393.787" fill="none" stroke="#000" stroke-linecap="round" stroke-linejoin="round" stroke-width="1.5"></polyline>
      <line x1="560.915" y1="307.352" x2="574.535" y2="320.973" fill="none" stroke="#000" stroke-linecap="round" stroke-linejoin="round" stroke-width="1.5"></line>
      <polyline points="551.62 614.847 555.292 636.997 563.543 628.374 570.21 650.619" fill="none" stroke="#000" stroke-linecap="round" stroke-linejoin="round" stroke-width="1.5"></polyline>
      <polyline points="543.242 618.821 532.268 638.408 544.084 637.071 535.404 658.365" fill="none" stroke="#000" stroke-linecap="round" stroke-linejoin="round" stroke-width="1.5"></polyline>
    </g>
  </g>
</svg>