<svg width="960" height="960" viewBox="0 0 960 960" fill="none" xmlns="http://www.w3.org/2000/svg">
<g clip-path="url(#clip0_46_7771)">
<g clip-path="url(#clip1_46_7771)">
<path fill-rule="evenodd" clip-rule="evenodd" d="M274.44 643.529C285.434 629.642 294.174 614.112 300.34 597.508C308.077 622.333 311.009 648.588 313.94 674.824C317.383 705.648 320.823 736.446 332.048 764.867C332.35 765.631 332.662 766.386 332.984 767.151C335.545 773.179 338.836 779.217 343.284 783.726C346.227 786.826 349.928 789.105 354.022 790.338C363.495 793.038 378.638 789.812 387.695 784.438C388.395 784.026 389.071 783.593 389.695 783.15C401.63 774.727 405.696 756.773 406.622 738.92C407.392 724.356 406.07 709.862 405.229 700.651C405.014 698.291 404.83 696.278 404.722 694.7C400.42 632.522 387.417 571.255 366.091 512.691L366.041 512.168C363.347 512.42 360.675 512.673 357.995 512.928C353.505 513.354 348.989 513.783 344.293 514.211C324.727 515.213 304.909 515.715 285.091 516.218C269.874 516.604 254.656 516.99 239.55 517.602L239.62 519.363C239.863 546.233 232.887 573.788 216.363 594.982C199.839 616.176 172.968 630.064 146.229 627.357C142.377 626.966 138.52 626.25 134.669 625.535C126.313 623.983 117.982 622.436 109.778 624.227C103.076 625.782 97.0278 629.392 92.4777 634.552C87.1899 640.404 83.8278 647.739 82.8467 655.565C81.1137 670.158 87.5967 685.022 98.1137 695.287C111.951 708.803 132.039 714.7 151.371 714.046C170.703 713.392 189.402 706.739 206.651 697.984C232.706 684.77 256.345 666.464 274.44 643.529ZM359.207 526.565C358.915 525.784 358.045 525.388 357.264 525.68C356.483 525.972 356.087 526.842 356.379 527.623C384.448 602.667 396.164 682.841 390.743 762.779C390.687 763.61 391.315 764.33 392.147 764.387C392.979 764.443 393.699 763.815 393.755 762.983C399.205 682.616 387.426 602.012 359.207 526.565Z" fill="#171717"/>
<path d="M859.139 452.7L859.239 453.233C850.993 463.688 839.061 470.593 825.888 472.533C812.856 474.395 800.437 470.108 789.759 462.409L789.467 462.309C789.658 461.725 789.849 461.142 790.031 460.558C809.7 446.854 837.653 442.405 859.139 452.7Z" fill="#171717"/>
<path d="M801.383 423.375C801.645 422.459 801.907 421.544 802.168 420.628C814.094 407.505 833.235 401.165 850.605 404.959L850.957 405.13C846.616 414.001 839.055 420.883 829.816 424.372C820.576 427.861 810.354 427.696 801.232 423.909C801.282 423.727 801.332 423.556 801.383 423.375Z" fill="#171717"/>
<path d="M811.366 385.466C811.346 385.547 811.336 385.617 811.316 385.697L810.823 385.576C810.888 381.788 811.8 378.062 813.494 374.673C815.187 371.283 817.618 368.316 820.608 365.99C823.599 363.663 827.072 362.036 830.774 361.229C834.476 360.421 838.311 360.453 841.999 361.322L842.734 362.157C839.634 368.174 835.2 373.402 829.771 377.444C824.341 381.485 818.06 384.232 811.406 385.475L811.366 385.466Z" fill="#171717"/>
<path d="M810.621 385.6L809.303 386.4C805.378 386.556 801.467 385.84 797.853 384.301C794.238 382.763 791.01 380.442 788.401 377.505C785.792 374.568 783.868 371.089 782.766 367.318C781.665 363.548 781.414 359.58 782.031 355.7L782.645 354.935C789.82 354.12 798.787 359.595 802.934 365.502C807.081 371.409 808.93 378.581 810.621 385.6Z" fill="#171717"/>
<path d="M800.508 422.561C800.126 423.024 799.763 423.487 799.401 423.97V423.99C790.354 426.295 780.218 422.229 773.979 415.144C767.256 407.506 764.52 397.044 764.228 386.865L764.448 386.553C781.255 390.457 796.724 405.694 800.508 422.561Z" fill="#171717"/>
<path d="M799.399 423.97C799.761 423.487 800.124 423.024 800.506 422.561C800.597 422.913 800.667 423.255 800.727 423.608C800.292 423.758 799.849 423.886 799.399 423.99V423.97Z" fill="#171717"/>
<path d="M767.76 156.123C781.93 164.013 793.443 178.555 793.392 194.778C793.342 210.417 779.492 225.805 764.137 224.617C763.573 224.567 763.01 224.506 762.446 224.417C751.366 222.686 742.359 212.139 742.379 200.928C742.399 189.717 751.457 179.2 762.537 177.51L719.072 176.373L718.83 176.273C726.79 157.806 739.118 149.242 761.571 153.126L761.591 153.086C763.684 153.99 765.747 155.006 767.76 156.123Z" fill="#171717"/>
<path d="M788.692 460.873L789.004 461.296C788.591 461.588 788.189 461.89 787.786 462.202C777.4 463.302 766.461 460.853 756.81 455.872C756.01 448.888 754.848 441.934 753.368 435.01C757.153 435.822 760.819 437.114 764.277 438.854C773.375 443.443 784.385 451.635 788.692 460.873Z" fill="#171717"/>
<path d="M775.911 502.789C789.872 494.639 805.936 490.812 822.072 491.791C838.208 492.77 853.692 498.511 866.565 508.289L866.706 508.5C853.216 518.173 836.852 523.002 820.271 522.203C803.69 521.404 787.866 515.025 775.367 504.1L774.985 503.959C775.045 503.788 775.106 503.617 775.166 503.459C775.277 503.177 775.377 502.895 775.478 502.624L775.911 502.789Z" fill="#171717"/>
<path d="M774.252 503.976C768.425 509.39 760.857 512.661 752.852 514.14C754.688 507.268 756.043 500.277 756.908 493.217C757.049 492.04 757.18 490.852 757.28 489.675C764.165 492.793 770.219 497.489 774.952 503.382L775.163 503.463C775.103 503.624 775.042 503.795 774.982 503.963C774.953 504.045 774.92 504.126 774.882 504.205L774.252 503.976Z" fill="#171717"/>
<path d="M717.563 826.881C701.884 804.097 686.899 778.374 679.673 751.735L680.337 751.554C721.095 671.954 798.385 611.98 885.617 592.275L886.191 592.305C883.32 643.396 866.581 692.738 837.774 735.029C808.941 777.196 775.429 809.429 718.126 826.488L717.563 826.881Z" fill="url(#paint0_linear_46_7771)"/>
<path d="M757.283 489.675C757.183 490.852 757.051 492.04 756.911 493.217C756.047 500.277 754.692 507.268 752.855 514.14C746.835 515.239 740.682 515.412 734.609 514.653C727.671 513.754 721.007 511.373 715.07 507.671C709.132 503.97 704.061 499.034 700.199 493.2L700.37 492.727C711.42 485.089 726.314 482.22 739.578 484.284C745.705 485.236 751.666 487.051 757.283 489.675V489.675Z" fill="#171717"/>
<path d="M754.599 556.538C766.854 548.901 781.16 545.213 795.58 545.974C810 546.735 823.838 551.909 835.22 560.795C823.58 570.303 808.854 575.205 793.838 574.572C778.943 573.986 764.794 567.898 754.127 557.484L754.077 557.464C754.208 557.152 754.339 556.84 754.47 556.518C754.474 556.515 754.477 556.51 754.479 556.505C754.48 556.499 754.481 556.494 754.48 556.488L754.599 556.538Z" fill="#171717"/>
<path d="M753.368 435.009C754.847 441.933 756.015 448.887 756.81 455.871C747.62 451.242 739.852 444.214 734.328 435.532L734.528 434.858C740.751 433.609 747.166 433.661 753.368 435.009V435.009Z" fill="#171717"/>
<path d="M753.65 556.187C747.767 558.585 741.511 559.938 735.163 560.187C737.387 555.548 739.531 550.878 741.553 546.178C746.137 548.785 750.23 552.172 753.65 556.187V556.187Z" fill="#171717"/>
<path d="M722.886 538.685C729.432 540.283 735.718 542.803 741.554 546.172C739.531 550.872 737.388 555.541 735.164 560.181C718.136 560.981 700.164 554.681 689.626 542.127L689.264 541.227C699.92 536.845 711.692 535.955 722.886 538.685V538.685Z" fill="#171717"/>
<path d="M734.973 603.658C745.09 599.623 756.161 598.61 766.842 600.741C777.524 602.872 787.359 608.056 795.154 615.664L795.003 615.825C785.382 622.638 771.414 626.125 759.911 623.554C748.519 621.008 739.532 615.09 733.725 605.017C733.866 604.705 734.007 604.393 734.138 604.071C734.217 603.914 734.287 603.752 734.349 603.588C734.379 603.528 734.409 603.467 734.43 603.417L734.973 603.658Z" fill="#171717"/>
<path d="M734.349 603.587C734.287 603.751 734.216 603.912 734.138 604.07L733.438 603.758C726.927 608.186 718.866 609.605 710.976 608.74C714.035 602.319 717.246 595.94 720.476 589.558C725.977 593.207 730.656 597.965 734.213 603.527L734.349 603.587Z" fill="#171717"/>
<path d="M720.471 589.557C717.241 595.937 714.03 602.318 710.971 608.739C707.333 608.332 703.762 607.463 700.344 606.153C689.596 602.037 680.659 594.253 672.81 585.844V585.544C682.954 581.458 698.352 580.552 708.758 583.883C712.908 585.217 716.851 587.127 720.471 589.557V589.557Z" fill="#171717"/>
<path d="M565.881 227.786L572.03 244.686L553.523 237.611L553.754 237.011C556.374 232.897 560.296 229.779 564.895 228.155L565.881 227.786Z" fill="#171717"/>
<path d="M539.213 579.022C531.534 593.574 523.665 608.106 516.942 622.991L515.542 622.357C491.436 596.089 476.677 562.599 473.556 527.084C473.254 523.491 473.076 519.891 473.023 516.284C472.564 484.545 481.443 453.371 498.555 426.636L500.105 427.622C533.013 469.839 547.405 525.995 538.871 578.84L539.213 579.022Z" fill="url(#paint1_linear_46_7771)"/>
<path d="M515.543 622.355L516.943 622.989C516.289 624.438 515.655 625.889 515.021 627.347L514.075 626.934C488.322 618.39 466.522 600.833 452.685 577.494C438.848 554.154 433.906 526.603 438.768 499.909C449.315 503.18 464.33 509.158 472.753 516.283H473.025C473.075 519.883 473.252 523.483 473.558 527.083C476.679 562.597 491.438 596.088 515.543 622.355Z" fill="#171717"/>
<path d="M539.836 834.167C509.836 831.862 479.773 830.725 449.645 830.755C449.654 830.733 449.657 830.709 449.655 830.685C450.188 824.949 445.418 820.118 440.527 817.059C431.782 811.594 421.617 808.907 412.167 804.771C402.717 800.635 393.398 794.405 389.524 784.835L387.692 784.442C388.392 784.029 389.071 783.597 389.692 783.154C401.628 774.731 405.692 756.777 406.619 738.924L406.819 738.934C410.457 737.086 414.536 736.28 418.604 736.607C422.671 736.934 426.569 738.381 429.865 740.786C432.232 734.126 436.105 728.102 441.183 723.185C446.26 718.267 452.404 714.589 459.137 712.436C465.87 710.284 473.008 709.715 479.997 710.775C486.985 711.834 493.635 714.494 499.426 718.545C502.791 758.2 518.189 797.133 540.309 833.5L539.836 834.167Z" fill="url(#paint2_linear_46_7771)"/>
<path d="M277.585 282.11C276.334 283.143 275.358 284.471 274.747 285.974C274.103 287.653 273.096 289.168 271.798 290.412C270.398 291.539 268.145 291.831 266.907 290.523C265.428 288.973 266.273 286.437 267.239 284.515C270.872 277.34 275.27 270.305 276.528 262.355C277.303 257.494 276.85 252.543 277.112 247.632C277.374 242.721 278.461 237.598 281.741 233.932C284.67 230.671 289.017 228.991 293.334 228.276C297.651 227.561 302.079 227.702 306.457 227.471C315.695 226.988 325.749 224.23 330.831 216.502C332.099 214.56 333.397 212.114 335.712 211.943C337.946 211.772 339.738 214.107 339.798 216.343C339.858 218.579 338.691 220.66 337.498 222.552C336.321 224.394 335.063 226.266 334.72 228.399L335.253 228.48L349.896 219.845C350.825 219.2 351.895 218.786 353.016 218.637C353.576 218.58 354.138 218.721 354.605 219.036C355.072 219.35 355.414 219.818 355.572 220.358C355.615 221.194 355.346 222.015 354.817 222.663C351.596 227.572 347.213 231.61 342.056 234.417L343.274 234.84C349.232 234.266 355.186 233.686 361.137 233.099C363.331 232.878 366.219 233.099 366.823 235.233C367.407 237.306 365.152 239.017 363.16 239.862C356.84 242.549 349.966 243.505 343.06 243.656C340.705 243.716 338.35 243.676 336.015 243.586C326.815 243.214 317.639 242.016 308.43 242.409C303.167 242.64 297.461 243.617 293.898 247.509C290.104 251.645 289.842 257.809 289.792 263.42C289.732 269.942 289.668 276.46 289.601 282.974H289.37C286.472 286.87 283.572 290.761 280.67 294.648C280.071 295.557 279.319 296.354 278.446 297.003C278.003 297.323 277.484 297.523 276.941 297.583C276.398 297.643 275.848 297.561 275.346 297.345C274.918 297.092 274.558 296.739 274.295 296.317C274.032 295.895 273.875 295.416 273.836 294.92C273.768 293.926 273.877 292.928 274.158 291.971C274.988 288.584 276.135 285.282 277.585 282.11V282.11Z" fill="#171717"/>
<path d="M344.218 829.6L342.809 830.094C318.313 829.952 293.852 830.979 269.424 833.173C270.727 827.164 273.572 821.599 277.68 817.025C281.788 812.451 287.017 809.026 292.852 807.087C291.419 801.638 291.435 795.909 292.896 790.467C294.358 785.025 297.215 780.059 301.185 776.061C305.155 772.063 310.101 769.17 315.532 767.67C320.963 766.17 326.692 766.114 332.152 767.508L332.987 767.156C335.543 773.184 338.834 779.221 343.287 783.73L342.351 784.576C343.076 792.385 341.194 800.175 340.399 807.975C339.639 815.408 340.062 823.459 344.218 829.6Z" fill="url(#paint3_linear_46_7771)"/>
<path d="M239.071 430.129L239.182 429.988C244.336 412.316 249.492 394.64 254.65 376.962C245.542 380.545 237.371 386.814 232.85 395.449C227.738 405.221 228.12 418.133 235.265 426.526C236.403 427.858 237.679 429.066 239.071 430.129V430.129ZM340.413 495.281C340.164 494.455 339.687 493.716 339.037 493.149C338.388 492.581 337.592 492.208 336.74 492.071C336.072 491.933 335.389 491.876 334.707 491.9C336.569 491.377 338.39 490.189 338.682 488.549C339.034 486.597 337.052 485.049 335.2 484.362C333.281 483.679 331.276 483.269 329.242 483.144L329.252 483.074C331.227 482.888 333.144 482.306 334.888 481.363C336.488 480.518 337.726 478.686 337.288 476.935C336.694 474.51 333.675 473.765 331.188 473.483C322.756 472.527 314.319 471.564 305.878 470.595L305.415 470.263C308.545 466.036 311.528 461.699 314.362 457.251C315.266 456.009 315.922 454.605 316.294 453.115C316.47 452.368 316.442 451.587 316.214 450.854C315.985 450.121 315.564 449.463 314.994 448.949C313.042 447.449 310.214 448.657 308.194 450.076C302.862 453.884 298.465 458.853 295.333 464.608L295.293 464.598C295.072 465.333 294.84 466.077 294.609 466.798C292.435 473.672 290.231 480.598 286.659 486.855C285.608 488.699 284.424 490.465 283.117 492.138L283.56 492.48C299.032 499.24 315.908 502.164 332.752 501.004C334.573 500.994 336.369 500.574 338.005 499.776C338.816 499.36 339.481 498.707 339.911 497.904C340.342 497.101 340.517 496.186 340.413 495.281ZM373.699 399.847L373.799 400.847C374.483 426.66 376.499 452.826 384.547 478.992C386.56 487.043 389.579 496.1 387.566 504.151C386.56 508.177 381.528 510.189 376.496 511.196C372.923 511.518 369.461 511.84 366.04 512.172C358.834 512.846 351.79 513.531 344.292 514.215C309.703 515.986 274.329 516.198 239.549 517.606C234.869 517.787 230.2 517.998 225.54 518.24C223.527 518.24 220.508 519.246 218.495 517.234C210.525 509.264 221.295 500.307 221.283 491.672C213.739 487.807 206.832 482.807 200.803 476.848C185.496 461.269 178.864 438.123 181.853 416.486C184.842 394.849 196.928 374.933 213.594 360.803C230.26 346.673 251.242 338.139 272.819 334.703L273.272 334.713C273.31 333.57 273.608 332.452 274.144 331.442C274.679 330.432 275.438 329.558 276.362 328.886C279.14 326.886 282.742 326.541 286.144 326.269L289.183 326.027C300.012 325.16 310.831 324.293 321.639 323.427C324.239 323.216 326.822 323.014 329.418 322.803C333.101 322.511 337.087 322.29 340.206 324.272C345.258 327.492 343.557 328.438 343.285 334.416C363.332 335.795 384.868 332.655 399.843 319.27C414.818 305.885 425.636 288.505 435.167 270.813C444.698 253.121 453.181 234.813 464.503 218.213C466.989 214.56 470.108 210.695 474.486 210.113C477.877 209.67 481.158 211.331 484.167 212.941C485.294 213.541 486.431 214.149 487.558 214.752C495.58 219.029 503.594 223.309 511.6 227.593C515.032 229.425 518.685 231.488 520.315 235.01C522.791 240.354 519.651 246.483 516.692 251.565C504.273 272.92 493.555 295.232 480.915 316.456C468.275 337.68 453.515 357.999 434.41 373.656C417.099 387.851 395.899 398.001 373.699 399.847Z" fill="url(#paint4_linear_46_7771)"/>
<path d="M321.599 322.94C320.734 317.818 320.19 311.719 324.075 308.277C327.054 305.64 331.633 305.64 334.833 303.277C338.833 300.318 339.533 294.723 339.885 289.761C340.952 274.786 342.019 259.815 343.085 244.847" stroke="#171717" stroke-width="3.019" stroke-linecap="round" stroke-linejoin="round"/>
<path d="M329.081 263.392V259.125" stroke="#171717" stroke-width="3.019" stroke-linecap="round" stroke-linejoin="round"/>
<path d="M306.469 266.219C306.227 264.319 305.996 262.425 305.769 260.533" stroke="#171717" stroke-width="3.019" stroke-linecap="round" stroke-linejoin="round"/>
<path d="M317.589 285.954C319.038 286.991 321.212 285.894 321.926 284.273C322.64 282.652 322.339 280.781 322.026 279.03C320.657 271.422 319.291 263.81 317.926 256.195C317.695 254.957 317.513 253.548 318.278 252.552C318.991 251.8 319.953 251.331 320.985 251.234C325.603 250.297 330.351 250.198 335.004 250.942" stroke="#171717" stroke-width="3.019" stroke-linecap="round" stroke-linejoin="round"/>
<path d="M309.658 300.326C307.908 300.638 306.105 300.284 304.602 299.334C303.1 298.385 302.007 296.908 301.537 295.193" stroke="#171717" stroke-width="3.019" stroke-linecap="round" stroke-linejoin="round"/>
<path d="M289.179 326.159V326.028L289.602 282.975C289.662 276.454 289.725 269.936 289.793 263.421C289.843 257.805 290.105 251.646 293.899 247.51C297.462 243.615 303.168 242.639 308.431 242.41C317.639 242.018 326.817 243.215 336.016 243.587C338.351 243.678 340.706 243.718 343.061 243.657C349.961 243.506 356.838 242.55 363.161 239.863C365.154 239.018 367.408 237.307 366.824 235.234C366.224 233.1 363.332 232.879 361.138 233.1C355.18 233.684 349.225 234.265 343.275 234.841" stroke="#171717" stroke-width="3.019" stroke-linecap="round" stroke-linejoin="round"/>
<path d="M342.054 234.418C347.21 231.611 351.594 227.573 354.815 222.664C355.344 222.017 355.613 221.195 355.57 220.359C355.412 219.819 355.07 219.351 354.603 219.037C354.136 218.722 353.574 218.581 353.014 218.638C351.892 218.786 350.823 219.201 349.894 219.846L335.251 228.481C335.563 228.119 335.875 227.756 336.177 227.394" stroke="#171717" stroke-width="3.019" stroke-linecap="round" stroke-linejoin="round"/>
<path d="M334.687 228.591C334.697 228.531 334.707 228.46 334.717 228.4C335.059 226.266 336.317 224.4 337.495 222.553C338.695 220.661 339.86 218.588 339.8 216.344C339.74 214.1 337.948 211.775 335.714 211.944C333.399 212.115 332.101 214.561 330.833 216.503C325.751 224.232 315.697 226.989 306.459 227.472C302.081 227.703 297.659 227.563 293.336 228.277C289.013 228.991 284.671 230.672 281.743 233.933C278.462 237.596 277.365 242.719 277.114 247.633C276.863 252.547 277.305 257.495 276.53 262.356C275.272 270.306 270.874 277.341 267.241 284.516C266.275 286.438 265.43 288.974 266.909 290.524C268.147 291.832 270.401 291.54 271.8 290.413C273.098 289.169 274.105 287.654 274.749 285.975C275.36 284.472 276.335 283.144 277.587 282.111C277.728 282.005 277.876 281.907 278.03 281.819" stroke="#171717" stroke-width="3.019" stroke-linecap="round" stroke-linejoin="round"/>
<path d="M277.826 281.577C277.745 281.758 277.665 281.929 277.584 282.11C276.135 285.282 274.99 288.584 274.162 291.972C273.881 292.928 273.772 293.927 273.84 294.921C273.879 295.417 274.036 295.896 274.299 296.318C274.562 296.74 274.922 297.093 275.35 297.346C275.852 297.562 276.402 297.644 276.945 297.584C277.489 297.524 278.007 297.324 278.45 297.004C279.323 296.355 280.076 295.558 280.674 294.649C283.572 290.754 286.47 286.863 289.369 282.975" stroke="#171717" stroke-width="3.019" stroke-linecap="round" stroke-linejoin="round"/>
<path d="M274.324 337.801C273.62 336.927 273.246 335.833 273.267 334.711C273.305 333.568 273.603 332.45 274.139 331.44C274.674 330.43 275.433 329.556 276.357 328.884C279.135 326.884 282.737 326.539 286.139 326.267L289.178 326.025C300.008 325.158 310.826 324.291 321.634 323.425C324.234 323.214 326.817 323.012 329.413 322.801C333.096 322.509 337.082 322.288 340.201 324.27C345.253 327.49 343.552 328.436 343.28 334.414" stroke="#171717" stroke-width="3.019" stroke-linecap="round" stroke-linejoin="round"/>
<path d="M343.281 334.422C363.328 335.801 384.864 332.661 399.839 319.276C414.814 305.891 425.632 288.511 435.163 270.819C444.694 253.127 453.177 234.819 464.499 218.219C466.985 214.566 470.104 210.701 474.482 210.119C477.873 209.676 481.154 211.337 484.163 212.947C485.29 213.547 486.427 214.155 487.554 214.758C495.576 219.035 503.59 223.315 511.596 227.599C515.028 229.431 518.681 231.494 520.311 235.016C522.787 240.36 519.647 246.489 516.688 251.571C504.269 272.926 493.551 295.238 480.911 316.462C468.271 337.686 453.511 358.005 434.406 373.662C417.096 387.852 395.892 398.006 373.691 399.848C371.387 400.038 369.072 400.138 366.747 400.148" stroke="#171717" stroke-width="3.019" stroke-linecap="round" stroke-linejoin="round"/>
<path d="M272.816 334.7C251.239 338.132 230.246 346.666 213.591 360.8C196.936 374.934 184.849 394.836 181.85 416.483C178.851 438.13 185.493 461.267 200.8 476.845C206.828 482.805 213.735 487.804 221.28 491.669C226.052 494.184 230.957 496.439 235.973 498.422C247.285 502.981 260.247 506.574 271.407 501.652C276.034 499.494 280.058 496.228 283.121 492.142C284.427 490.469 285.611 488.703 286.663 486.859C290.236 480.599 292.44 473.675 294.613 466.802C294.844 466.077 295.076 465.333 295.297 464.602C296.263 461.281 296.968 457.839 296.142 454.528C294.693 448.621 288.886 444.857 283.15 442.834C275.05 439.986 266.344 439.434 257.91 437.772C251.21 436.464 244.384 434.272 239.071 430.134C237.68 429.072 236.406 427.865 235.271 426.534C228.126 418.141 227.743 405.234 232.856 395.457C237.375 386.822 245.546 380.557 254.656 376.97C255.856 376.487 257.071 376.064 258.299 375.682" stroke="#171717" stroke-width="3.019" stroke-linecap="round" stroke-linejoin="round"/>
<path d="M221.278 491.407V491.669C221.288 500.304 210.52 509.26 218.49 517.231C220.503 519.244 223.522 518.237 225.535 518.237C230.195 517.995 234.865 517.783 239.544 517.603C274.324 516.194 309.698 515.983 344.287 514.212C351.787 513.528 358.829 512.843 366.035 512.169C369.457 511.837 372.919 511.515 376.491 511.193C381.523 510.187 386.555 508.174 387.561 504.148C389.574 496.097 386.555 487.04 384.542 478.989C376.491 452.823 374.478 426.658 373.794 400.844" stroke="#171717" stroke-width="3.019" stroke-linecap="round" stroke-linejoin="round"/>
<path d="M254.731 376.669C254.701 376.769 254.671 376.86 254.65 376.961C249.487 394.633 244.331 412.308 239.182 429.987" stroke="#171717" stroke-width="3.019" stroke-linecap="round" stroke-linejoin="round"/>
<path d="M531.543 205.436C536.504 204.248 543.549 207.268 541.536 213.306C539.242 217.906 535.256 220.401 530.647 222.061C525.172 224.054 518.812 224.861 513.327 226.63" stroke="#171717" stroke-width="3.019" stroke-linecap="round" stroke-linejoin="round"/>
<path d="M508.099 198.028C507.342 200.383 507.391 202.923 508.239 205.246C509.087 207.57 510.684 209.545 512.78 210.859C513.922 211.561 515.219 211.974 516.557 212.061C517.895 212.148 519.234 211.907 520.458 211.359C524.312 209.959 528.017 206.79 530.966 205.371" stroke="#171717" stroke-width="3.019" stroke-linecap="round" stroke-linejoin="round"/>
<path d="M528.3 173.926C532.97 174.026 538.323 175.647 543.325 178.026C554.164 183.148 563.412 191.773 560.765 196.026C557.726 200.937 552.805 200.444 548.88 197.183C547.885 196.356 546.996 195.409 546.233 194.365" stroke="#171717" stroke-width="3.019" stroke-linecap="round" stroke-linejoin="round"/>
<path d="M487.454 215.167C487.484 215.026 487.524 214.895 487.554 214.754C489.818 205.485 493.069 196.154 498.534 188.266" stroke="#171717" stroke-width="3.019" stroke-linecap="round" stroke-linejoin="round"/>
<path d="M295.338 464.606C298.47 458.851 302.868 453.882 308.2 450.074C310.223 448.655 313.051 447.447 315 448.947C315.57 449.461 315.991 450.119 316.219 450.852C316.448 451.585 316.476 452.366 316.3 453.113C315.927 454.603 315.271 456.007 314.368 457.249C311.54 461.697 308.558 466.034 305.421 470.261C305.361 470.342 305.31 470.412 305.25 470.492" stroke="#171717" stroke-width="3.019" stroke-linecap="round" stroke-linejoin="round"/>
<path d="M283.563 492.483C299.035 499.244 315.911 502.168 332.755 501.007C334.576 500.997 336.372 500.577 338.008 499.779C338.819 499.362 339.483 498.708 339.912 497.904C340.341 497.1 340.514 496.184 340.408 495.279C340.159 494.453 339.682 493.715 339.033 493.147C338.383 492.579 337.587 492.206 336.735 492.069C336.067 491.931 335.385 491.874 334.702 491.898C333.662 491.937 332.623 492.031 331.592 492.18C322.944 493.207 314.177 492.422 305.849 489.875" stroke="#171717" stroke-width="3.019" stroke-linecap="round" stroke-linejoin="round"/>
<path d="M332.574 492.191C333.296 492.202 334.016 492.104 334.708 491.899C336.57 491.376 338.391 490.188 338.683 488.548C339.035 486.596 337.053 485.048 335.201 484.361C333.282 483.678 331.276 483.268 329.243 483.143C326.616 482.952 323.929 483.052 321.293 483.032C316.784 483.174 312.286 482.527 308 481.12" stroke="#171717" stroke-width="3.019" stroke-linecap="round" stroke-linejoin="round"/>
<path d="M329.253 483.074C331.228 482.888 333.144 482.306 334.889 481.363C336.489 480.518 337.727 478.686 337.289 476.935C336.695 474.51 333.676 473.765 331.189 473.483C322.756 472.527 314.32 471.564 305.879 470.595" stroke="#171717" stroke-width="3.019" stroke-linecap="round" stroke-linejoin="round"/>
<path d="M366.085 512.691C387.413 571.256 400.418 632.522 404.72 694.7C405.253 702.439 407.588 720.624 406.62 738.92C405.694 756.773 401.628 774.727 389.693 783.15C389.069 783.593 388.393 784.026 387.693 784.438C378.636 789.812 363.493 793.038 354.02 790.338C349.927 789.106 346.226 786.827 343.282 783.726C338.834 779.217 335.543 773.179 332.987 767.151C332.665 766.386 332.353 765.631 332.051 764.867C311.269 712.254 317.167 651.499 300.34 597.507C300.29 597.346 300.24 597.195 300.189 597.034" stroke="#171717" stroke-width="3.019" stroke-linecap="round" stroke-linejoin="round"/>
<path d="M308.542 563.975C307.1 575.429 304.349 586.68 300.342 597.507C294.176 614.111 285.436 629.642 274.442 643.528C256.347 666.463 232.708 684.769 206.653 697.983C189.404 706.738 170.705 713.391 151.373 714.045C132.041 714.699 111.953 708.802 98.1156 695.286C87.5986 685.021 81.1156 670.157 82.8486 655.564C83.8298 647.739 87.1918 640.403 92.4796 634.551C97.0297 629.391 103.078 625.782 109.78 624.226C121.766 621.609 134.024 626.118 146.231 627.356C172.97 630.063 199.841 616.175 216.365 594.981C232.889 573.787 239.865 546.232 239.622 519.362" stroke="#171717" stroke-width="3.019" stroke-linecap="round" stroke-linejoin="round"/>
<path d="M342.345 784.573C343.07 792.382 341.188 800.173 340.393 807.973C339.638 815.41 340.061 823.461 344.217 829.6C344.417 829.912 344.64 830.214 344.861 830.506C349.349 836.373 356.716 839.131 363.68 841.596C372.788 844.816 381.899 848.04 391.013 851.267C399.648 854.326 408.776 857.436 417.803 855.836C426.87 854.226 434.403 848.117 441.483 842.23C445.183 839.14 449.172 835.548 449.645 830.757C449.654 830.735 449.657 830.711 449.655 830.687C450.188 824.951 445.418 820.12 440.527 817.061C431.782 811.596 421.617 808.909 412.167 804.773C402.717 800.637 393.398 794.407 389.524 784.837" stroke="#171717" stroke-width="3.019" stroke-linecap="round" stroke-linejoin="round"/>
<path d="M91.4065 634.301C85.3785 631.564 78.4245 628.801 72.3755 631.483C66.7395 633.983 64.0225 640.283 61.7985 646.015C55.8105 661.523 49.8225 677.024 43.8345 692.52C41.4895 698.598 39.1245 705.371 41.4795 711.44C43.7435 717.287 49.6915 720.699 55.2165 723.657C60.1775 726.304 66.0455 729.011 71.1875 726.726C73.9955 725.478 75.9875 722.952 77.8595 720.517L96.7895 695.941" stroke="#171717" stroke-width="3.019" stroke-linecap="round" stroke-linejoin="round"/>
<path d="M531.8 224.032C524.1 267.94 528.248 313.78 541.371 356.491C553.84 397.098 574.461 436.649 573.271 479.118C572.271 514.864 556.183 546.948 539.215 579.018C531.536 593.57 523.667 608.102 516.944 622.987C516.29 624.436 515.656 625.887 515.022 627.345C513.432 630.998 511.929 634.675 510.513 638.375C500.774 663.908 496.985 691.325 499.433 718.543C502.792 758.2 518.19 797.134 540.31 833.5L723.581 835.452C721.568 832.644 719.562 829.786 717.563 826.878C701.884 804.094 686.899 778.371 679.673 751.732C677.682 744.511 676.325 737.129 675.617 729.672C675.252 725.704 675.107 721.72 675.184 717.736C676.029 675.836 690.984 651.798 708.596 613.767C709.371 612.086 710.162 610.409 710.971 608.735C714.03 602.314 717.241 595.935 720.471 589.553C725.442 579.781 730.471 570.029 735.164 560.177C737.388 555.538 739.532 550.868 741.554 546.168C746.116 535.788 749.893 525.08 752.854 514.135C754.69 507.263 756.046 500.272 756.91 493.212C757.051 492.035 757.182 490.847 757.282 489.67C758.307 478.418 758.149 467.089 756.809 455.87C756.009 448.886 754.847 441.932 753.367 435.008C748.818 413.623 741.431 392.529 733.803 372.029C719.321 333.102 703.491 293.401 703.763 251.868C703.833 241.945 705.896 232.012 707.563 222.049C707.663 221.485 707.754 220.922 707.845 220.358C710.753 202.384 713.974 187.49 718.825 176.269C726.785 157.802 739.113 149.238 761.566 153.122" stroke="#171717" stroke-width="3.019" stroke-linecap="round" stroke-linejoin="round"/>
<path d="M762.536 177.508C751.456 179.199 742.398 189.708 742.378 200.926C742.358 212.144 751.365 222.684 762.445 224.415C763.009 224.506 763.572 224.566 764.136 224.615C779.493 225.803 793.341 210.415 793.391 194.776C793.441 178.553 781.928 164.011 767.759 156.121C765.746 155.004 763.683 153.987 761.59 153.082C748.91 147.567 734.78 145.625 720.932 144.266C686.776 140.905 652.398 140.512 618.071 140.12C604.032 139.959 589.48 139.899 576.639 145.575C562.902 151.643 552.667 164.394 545.739 177.96" stroke="#171717" stroke-width="3.019" stroke-linecap="round" stroke-linejoin="round"/>
<path d="M708.425 222.191L764.117 225.008L764.54 225.029" stroke="#171717" stroke-width="3.019" stroke-linecap="round" stroke-linejoin="round"/>
<path d="M719.071 176.37L762.536 177.508" stroke="#171717" stroke-width="3.019" stroke-linecap="round" stroke-linejoin="round"/>
<path d="M482.523 169.86L505.72 149.018L528.162 174.057L548.883 197.183L558.766 208.213L565.881 227.787L572.03 244.684L553.523 237.609L539.826 232.366" stroke="#171717" stroke-width="3.019" stroke-linecap="round" stroke-linejoin="round"/>
<path d="M520.373 211.151L508.226 197.907L498.997 187.833L482.523 169.859" stroke="#171717" stroke-width="3.019" stroke-linecap="round" stroke-linejoin="round"/>
<path d="M539.826 232.366L532.006 223.842L530.829 222.554" stroke="#171717" stroke-width="3.019" stroke-linecap="round" stroke-linejoin="round"/>
<path d="M553.755 237.001C556.374 232.886 560.297 229.768 564.896 228.145" stroke="#171717" stroke-width="3.019" stroke-linecap="round" stroke-linejoin="round"/>
<path d="M500.306 719.158C500.014 718.947 499.722 718.735 499.43 718.544C493.638 714.493 486.989 711.833 480.001 710.774C473.012 709.714 465.873 710.283 459.141 712.435C452.408 714.588 446.264 718.266 441.186 723.184C436.109 728.101 432.236 734.125 429.869 740.785C426.573 738.38 422.675 736.933 418.608 736.606C414.54 736.279 410.461 737.085 406.823 738.933C407.588 738.671 408.343 738.42 409.107 738.158" stroke="#171717" stroke-width="3.019" stroke-linecap="round" stroke-linejoin="round"/>
<path d="M332.152 767.501C326.692 766.107 320.963 766.163 315.532 767.663C310.101 769.163 305.155 772.056 301.185 776.054C297.215 780.053 294.358 785.018 292.896 790.46C291.435 795.902 291.419 801.631 292.852 807.081C287.017 809.019 281.788 812.444 277.68 817.018C273.572 821.592 270.727 827.157 269.424 833.166C293.818 830.972 318.28 829.945 342.809 830.087" stroke="#171717" stroke-width="3.019" stroke-linecap="round" stroke-linejoin="round"/>
<path d="M448.418 830.755H449.646C479.737 830.725 509.8 831.863 539.837 834.167" stroke="#171717" stroke-width="3.019" stroke-linecap="round" stroke-linejoin="round"/>
<path d="M718.125 826.488C775.425 809.43 808.94 777.196 837.773 735.029C866.581 692.736 883.32 643.392 886.19 592.3L886.22 591.666" stroke="#171717" stroke-width="3.019" stroke-linecap="round" stroke-linejoin="round"/>
<path d="M885.617 592.275C798.384 611.98 721.1 671.95 680.337 751.554" stroke="#171717" stroke-width="3.019" stroke-linecap="round" stroke-linejoin="round"/>
<path d="M702.678 801.671C711.937 790.149 721.323 778.73 730.836 767.414C743.586 752.218 756.569 737.213 769.783 722.399C781.769 708.933 793.946 695.628 806.314 682.486C819.847 668.066 833.604 653.842 847.585 639.816" stroke="#171717" stroke-width="3.019" stroke-linecap="round" stroke-linejoin="round"/>
<path d="M806.274 681.8C811.99 665.477 816.811 649.022 822.527 632.689" stroke="#171717" stroke-width="3.019" stroke-linecap="round" stroke-linejoin="round"/>
<path d="M806.1 682.516L806.311 682.487C820.903 680.414 833.795 678.552 848.418 676.479" stroke="#171717" stroke-width="3.019" stroke-linecap="round" stroke-linejoin="round"/>
<path d="M768.826 721.584C771.231 703.56 773.633 685.54 776.032 667.522" stroke="#171717" stroke-width="3.019" stroke-linecap="round" stroke-linejoin="round"/>
<path d="M768.807 722.409C769.129 722.409 769.461 722.399 769.783 722.399C785.09 722.278 800.394 722.154 815.694 722.027" stroke="#171717" stroke-width="3.019" stroke-linecap="round" stroke-linejoin="round"/>
<path d="M730.8 767.585C730.81 767.525 730.83 767.474 730.84 767.414C735.507 745.931 739.065 724.221 741.5 702.372" stroke="#171717" stroke-width="3.019" stroke-linecap="round" stroke-linejoin="round"/>
<path d="M730.8 767.586C746.147 766.127 759.814 766.57 775.2 767.505" stroke="#171717" stroke-width="3.019" stroke-linecap="round" stroke-linejoin="round"/>
<path d="M538.87 578.84C547.404 525.995 533.013 469.84 500.104 427.622" stroke="#171717" stroke-width="3.019" stroke-linecap="round" stroke-linejoin="round"/>
<path d="M498.9 426.093C498.779 426.274 498.669 426.455 498.558 426.636C481.446 453.371 472.567 484.545 473.026 516.284C473.076 519.884 473.253 523.484 473.559 527.084C476.68 562.599 491.439 596.089 515.545 622.357" stroke="#171717" stroke-width="3.019" stroke-linecap="round" stroke-linejoin="round"/>
<path d="M525.758 602.258C524.188 594.69 522.614 587.119 521.038 579.544C513.671 544.059 506.304 508.571 498.938 473.08" stroke="#171717" stroke-width="3.019" stroke-linecap="round" stroke-linejoin="round"/>
<path d="M507.129 515.75L489.529 490.782" stroke="#171717" stroke-width="3.019" stroke-linecap="round" stroke-linejoin="round"/>
<path d="M507.562 513.8C511.162 504.109 513.933 496.219 517.546 486.527" stroke="#171717" stroke-width="3.019" stroke-linecap="round" stroke-linejoin="round"/>
<path d="M513.832 545.338L489.669 526.881" stroke="#171717" stroke-width="3.019" stroke-linecap="round" stroke-linejoin="round"/>
<path d="M513.952 543.989C518.008 535.475 521.238 528.42 525.294 519.906" stroke="#171717" stroke-width="3.019" stroke-linecap="round" stroke-linejoin="round"/>
<path d="M520.705 578.8C513.046 574.664 506.726 571.141 500.366 565.2" stroke="#171717" stroke-width="3.019" stroke-linecap="round" stroke-linejoin="round"/>
<path d="M521.018 579.584C521.028 579.573 521.035 579.559 521.038 579.544C524.339 573.868 527.639 568.196 530.938 562.526" stroke="#171717" stroke-width="3.019" stroke-linecap="round" stroke-linejoin="round"/>
<path d="M472.751 516.283C464.328 509.158 449.313 503.183 438.766 499.909C438.756 499.909 438.746 499.899 438.736 499.899" stroke="#171717" stroke-width="3.019" stroke-linecap="round" stroke-linejoin="round"/>
<path d="M438.817 499.618C438.797 499.718 438.777 499.809 438.767 499.91C433.905 526.604 438.847 554.155 452.684 577.495C466.521 600.834 488.321 618.391 514.074 626.935" stroke="#171717" stroke-width="3.019" stroke-linecap="round" stroke-linejoin="round"/>
<path d="M675.979 729.635C695.764 687.76 715.367 646.519 733.724 605.016C733.865 604.704 734.007 604.392 734.138 604.07C734.217 603.913 734.287 603.752 734.349 603.587C734.379 603.527 734.409 603.466 734.43 603.416C741.173 588.15 747.721 572.833 754.073 557.465C754.204 557.153 754.335 556.841 754.466 556.519C754.47 556.515 754.473 556.511 754.475 556.506C754.477 556.5 754.477 556.495 754.477 556.489C761.602 539.189 768.405 521.762 774.885 504.208C774.925 504.127 774.956 504.047 774.986 503.966C775.046 503.795 775.107 503.624 775.167 503.466C775.278 503.184 775.378 502.902 775.479 502.631C780.36 489.298 785.02 475.86 789.458 462.316H789.468C789.659 461.732 789.849 461.149 790.031 460.565C793.976 448.458 797.71 436.241 801.232 423.913C801.282 423.732 801.332 423.561 801.383 423.38C801.645 422.464 801.906 421.549 802.168 420.633C805.408 409.1 808.457 397.456 811.315 385.702C811.335 385.621 811.346 385.551 811.366 385.471C811.369 385.467 811.372 385.463 811.374 385.458C811.376 385.452 811.376 385.447 811.375 385.441" stroke="#171717" stroke-width="3.019" stroke-linecap="round" stroke-linejoin="round"/>
<path d="M811.406 385.475C818.06 384.233 824.341 381.486 829.771 377.444C835.2 373.403 839.634 368.174 842.734 362.157" stroke="#171717" stroke-width="3.019" stroke-linecap="round" stroke-linejoin="round"/>
<path d="M810.822 385.575C810.887 381.787 811.799 378.061 813.493 374.671C815.186 371.282 817.617 368.315 820.608 365.989C823.598 363.662 827.072 362.035 830.774 361.228C834.476 360.42 838.311 360.452 841.999 361.321" stroke="#171717" stroke-width="3.019" stroke-linecap="round" stroke-linejoin="round"/>
<path d="M810.622 385.601C808.931 378.587 807.069 371.421 802.933 365.501C798.797 359.581 789.82 354.119 782.644 354.934" stroke="#171717" stroke-width="3.019" stroke-linecap="round" stroke-linejoin="round"/>
<path d="M809.3 386.391C805.376 386.546 801.466 385.829 797.853 384.291C794.24 382.753 791.013 380.433 788.405 377.497C785.796 374.561 783.872 371.084 782.77 367.314C781.668 363.545 781.416 359.579 782.032 355.7" stroke="#171717" stroke-width="3.019" stroke-linecap="round" stroke-linejoin="round"/>
<path d="M801.199 423.9C801.209 423.9 801.219 423.91 801.229 423.91C810.351 427.697 820.573 427.862 829.812 424.373C839.052 420.884 846.613 414.002 850.954 405.131C851.024 405 851.095 404.859 851.154 404.731" stroke="#171717" stroke-width="3.019" stroke-linecap="round" stroke-linejoin="round"/>
<path d="M799.399 423.969C799.761 423.486 800.124 423.023 800.506 422.56C801.04 421.894 801.593 421.25 802.167 420.628C814.093 407.505 833.234 401.165 850.604 404.959" stroke="#171717" stroke-width="3.019" stroke-linecap="round" stroke-linejoin="round"/>
<path d="M800.799 423.929C800.779 423.818 800.759 423.718 800.729 423.607C800.669 423.255 800.598 422.913 800.508 422.56C796.724 405.693 781.256 390.46 764.45 386.552" stroke="#171717" stroke-width="3.019" stroke-linecap="round" stroke-linejoin="round"/>
<path d="M801.484 423.345C801.454 423.355 801.413 423.365 801.383 423.375C801.172 423.466 800.95 423.536 800.729 423.606C800.294 423.757 799.851 423.884 799.401 423.988C790.354 426.293 780.22 422.227 773.981 415.142C767.258 407.504 764.521 397.037 764.229 386.863" stroke="#171717" stroke-width="3.019" stroke-linecap="round" stroke-linejoin="round"/>
<path d="M789.76 462.412C800.438 470.112 812.86 474.398 825.889 472.536C839.062 470.596 850.994 463.691 859.24 453.236" stroke="#171717" stroke-width="3.019" stroke-linecap="round" stroke-linejoin="round"/>
<path d="M787.516 462.4C787.607 462.33 787.697 462.259 787.788 462.2C788.188 461.888 788.588 461.586 789.006 461.294C789.338 461.042 789.69 460.801 790.032 460.559C809.697 446.852 837.654 442.404 859.14 452.699" stroke="#171717" stroke-width="3.019" stroke-linecap="round" stroke-linejoin="round"/>
<path d="M788.692 460.872C784.385 451.633 773.375 443.442 764.277 438.853C760.819 437.113 757.153 435.822 753.368 435.009C747.166 433.662 740.752 433.61 734.529 434.858" stroke="#171717" stroke-width="3.019" stroke-linecap="round" stroke-linejoin="round"/>
<path d="M734.328 435.532C739.852 444.214 747.62 451.242 756.81 455.871C766.461 460.853 777.4 463.298 787.786 462.201C788.028 462.181 788.269 462.151 788.511 462.12" stroke="#171717" stroke-width="3.019" stroke-linecap="round" stroke-linejoin="round"/>
<path d="M775.368 504.106C787.867 515.031 803.691 521.411 820.272 522.21C836.852 523.008 853.216 518.179 866.707 508.506C866.737 508.486 866.777 508.456 866.807 508.436" stroke="#171717" stroke-width="3.019" stroke-linecap="round" stroke-linejoin="round"/>
<path d="M775.911 502.789C789.872 494.639 805.936 490.812 822.072 491.791C838.208 492.77 853.692 498.511 866.565 508.289" stroke="#171717" stroke-width="3.019" stroke-linecap="round" stroke-linejoin="round"/>
<path d="M774.955 503.383C770.222 497.49 764.168 492.794 757.283 489.676C751.667 487.051 745.708 485.235 739.583 484.282C726.319 482.219 711.425 485.087 700.375 492.725" stroke="#171717" stroke-width="3.019" stroke-linecap="round" stroke-linejoin="round"/>
<path d="M774.251 503.975C768.424 509.389 760.856 512.66 752.851 514.139C746.831 515.238 740.678 515.411 734.605 514.652C727.667 513.753 721.004 511.371 715.068 507.67C709.131 503.969 704.061 499.034 700.199 493.2" stroke="#171717" stroke-width="3.019" stroke-linecap="round" stroke-linejoin="round"/>
<path d="M754.123 557.484C764.79 567.898 778.939 573.986 793.834 574.572C808.85 575.205 823.576 570.302 835.216 560.795" stroke="#171717" stroke-width="3.019" stroke-linecap="round" stroke-linejoin="round"/>
<path d="M754.6 556.538C766.854 548.901 781.16 545.213 795.58 545.974C810 546.735 823.838 551.909 835.221 560.795" stroke="#171717" stroke-width="3.019" stroke-linecap="round" stroke-linejoin="round"/>
<path d="M753.65 556.187C747.767 558.585 741.511 559.938 735.163 560.187C718.135 560.987 700.163 554.687 689.625 542.133" stroke="#171717" stroke-width="3.019" stroke-linecap="round" stroke-linejoin="round"/>
<path d="M753.65 556.186C750.23 552.17 746.135 548.781 741.55 546.173C735.715 542.804 729.429 540.283 722.882 538.686C711.687 535.956 699.915 536.848 689.259 541.232C689.189 541.262 689.108 541.292 689.038 541.323" stroke="#171717" stroke-width="3.019" stroke-linecap="round" stroke-linejoin="round"/>
<path d="M734.208 603.526C730.65 597.965 725.971 593.207 720.471 589.557C716.851 587.126 712.908 585.215 708.757 583.881C698.351 580.55 682.957 581.456 672.809 585.542" stroke="#171717" stroke-width="3.019" stroke-linecap="round" stroke-linejoin="round"/>
<path d="M733.433 603.758C726.922 608.186 718.861 609.605 710.971 608.74C707.333 608.333 703.762 607.464 700.344 606.154C689.596 602.038 680.659 594.254 672.81 585.845" stroke="#171717" stroke-width="3.019" stroke-linecap="round" stroke-linejoin="round"/>
<path d="M734.973 603.658C745.09 599.623 756.161 598.61 766.842 600.741C777.524 602.872 787.359 608.056 795.154 615.664L795.275 615.785" stroke="#171717" stroke-width="3.019" stroke-linecap="round" stroke-linejoin="round"/>
<path d="M733.554 604.724C733.614 604.824 733.665 604.924 733.725 605.016C739.532 615.09 748.519 621.007 759.911 623.553C771.411 626.119 785.382 622.637 795.003 615.824" stroke="#171717" stroke-width="3.019" stroke-linecap="round" stroke-linejoin="round"/>
<path d="M409.392 230.67L395.209 216.438" stroke="#171717" stroke-width="3.019" stroke-linecap="round" stroke-linejoin="round"/>
<path d="M394.524 232.201L409.375 212.261" stroke="#171717" stroke-width="3.019" stroke-linecap="round" stroke-linejoin="round"/>
<path d="M361.849 193.867L371.849 183.978" stroke="#171717" stroke-width="3.019" stroke-linecap="round" stroke-linejoin="round"/>
<path d="M370.222 194.523L362.422 183.854" stroke="#171717" stroke-width="3.019" stroke-linecap="round" stroke-linejoin="round"/>
<path d="M399.404 186.667C402.083 184.505 405.256 183.041 408.639 182.405" stroke="#171717" stroke-width="3.019" stroke-linecap="round" stroke-linejoin="round"/>
<path d="M404.586 190.181L402.396 178.115" stroke="#171717" stroke-width="3.019" stroke-linecap="round" stroke-linejoin="round"/>
<path d="M506.633 133.4C504.028 123.928 501.423 114.457 498.819 104.985" stroke="#171717" stroke-width="3.019" stroke-linecap="round" stroke-linejoin="round"/>
<path d="M518.729 136.218L524.417 126.985" stroke="#171717" stroke-width="3.019" stroke-linecap="round" stroke-linejoin="round"/>
<path d="M493.885 136.231L487.492 131.258" stroke="#171717" stroke-width="3.019" stroke-linecap="round" stroke-linejoin="round"/>
<path d="M90.7418 702.3L75.1318 688.072" stroke="#171717" stroke-width="3.019" stroke-linecap="round" stroke-linejoin="round"/>
<path d="M83.1206 711.809L67.7266 696.886" stroke="#171717" stroke-width="3.019" stroke-linecap="round" stroke-linejoin="round"/>
<path d="M75.5917 722.164L61.5527 706.855" stroke="#171717" stroke-width="3.019" stroke-linecap="round" stroke-linejoin="round"/>
<path d="M422.786 809.994C413.371 813.79 404.489 818.791 396.361 824.873" stroke="#171717" stroke-width="3.019" stroke-linecap="round" stroke-linejoin="round"/>
<path d="M408.629 803.01C399.678 805.957 391.116 809.975 383.129 814.977" stroke="#171717" stroke-width="3.019" stroke-linecap="round" stroke-linejoin="round"/>
<path d="M395.806 796.248C387.926 798.519 380.557 802.284 374.1 807.339" stroke="#171717" stroke-width="3.019" stroke-linecap="round" stroke-linejoin="round"/>
<path d="M142.274 485.822C145.364 480.71 152.34 478.922 158.094 480.528C163.848 482.134 168.477 486.459 172.032 491.259C179.081 500.777 182.75 513.391 179.332 524.731C175.914 536.071 164.258 545.08 152.554 543.269C146.154 542.278 139.888 537.42 139.431 530.956C138.883 523.187 147.522 516.896 155.208 518.151C162.894 519.406 168.726 526.342 170.747 533.863C171.774 537.681 171.996 541.671 171.4 545.58C170.805 549.489 169.404 553.232 167.286 556.571C165.169 559.91 162.381 562.773 159.099 564.979C155.818 567.185 152.114 568.685 148.222 569.385C141.796 570.54 135.212 569.468 128.711 568.86C122.21 568.252 115.353 568.175 109.517 571.102C103.681 574.029 99.3173 580.802 101.125 587.077" stroke="#171717" stroke-width="3.019" stroke-linecap="round" stroke-linejoin="round"/>
<path d="M473.58 377.537C478.267 374.673 484.902 377.314 487.645 382.073C490.388 386.832 489.922 392.873 487.998 398.014C485.553 404.179 481.276 409.446 475.743 413.102C470.21 416.759 463.689 418.629 457.059 418.461C449.672 418.128 442.427 415.204 435.078 416.027C422.808 417.4 414.089 428.647 408.906 439.853C405.68 446.828 403.19 454.529 404.423 462.114C405.656 469.699 411.591 476.957 419.258 477.475C426.925 477.993 434.318 469.327 430.963 462.413C429.7 459.813 426.946 457.802 424.063 458.055C421.18 458.308 418.663 461.324 419.472 464.102" stroke="#171717" stroke-width="3.019" stroke-linecap="round" stroke-linejoin="round"/>
<path d="M892.342 342.237C880.299 346.659 873.042 359.727 872.183 372.528C871.324 385.329 875.752 397.891 881.11 409.549C889.927 428.733 901.41 446.622 909.798 465.998C918.186 485.374 923.404 507.03 918.777 527.63C917.169 534.788 914.265 541.876 909.059 547.044C903.853 552.212 896.032 555.144 888.97 553.151C883.881 551.719 879.434 547.488 878.659 542.259C877.884 537.03 881.52 531.259 886.752 530.506C891.984 529.753 897.361 535.172 895.876 540.245" stroke="#171717" stroke-width="3.019" stroke-linecap="round" stroke-linejoin="round"/>
<path d="M758.22 316.7C753.248 306.549 748.17 295.981 747.966 284.679C747.762 273.377 753.908 261.116 764.781 258.026C775.067 255.103 786.072 260.942 796.612 259.143C806.358 257.479 813.824 249.651 819.55 241.591C822.426 237.543 825.1 233.233 826.326 228.421C827.552 223.609 827.16 218.182 824.286 214.132C821.412 210.082 815.746 207.894 811.194 209.878C806.642 211.862 804.531 218.45 807.743 222.238C809.754 224.61 813.078 225.391 816.185 225.538" stroke="#171717" stroke-width="3.019" stroke-linecap="round" stroke-linejoin="round"/>
<path d="M187.028 725.129C209.321 722.368 229.994 712.049 245.599 695.893" stroke="#171717" stroke-width="3.019" stroke-linecap="round" stroke-linejoin="round"/>
<path d="M167.319 436.885C164.216 427.839 163.433 418.158 165.042 408.731C166.65 399.304 170.599 390.431 176.526 382.926" stroke="#171717" stroke-width="3.019" stroke-linecap="round" stroke-linejoin="round"/>
<path d="M331.524 333.239C331.37 330.082 331.215 326.925 331.061 323.767" stroke="#171717" stroke-width="3.019" stroke-linecap="round" stroke-linejoin="round"/>
<path d="M317.229 334.664L316.284 324.245" stroke="#171717" stroke-width="3.019" stroke-linecap="round" stroke-linejoin="round"/>
<path d="M298.768 336.557L298.294 326.612" stroke="#171717" stroke-width="3.019" stroke-linecap="round" stroke-linejoin="round"/>
<path d="M284.569 336.557C284.095 333.557 283.62 330.557 283.146 327.557" stroke="#171717" stroke-width="3.019" stroke-linecap="round" stroke-linejoin="round"/>
<path d="M493.886 265.046L494.36 251.786" stroke="#171717" stroke-width="3.019" stroke-linecap="round" stroke-linejoin="round"/>
<path d="M454.6 267.97L464.511 265.47" stroke="#171717" stroke-width="3.019" stroke-linecap="round" stroke-linejoin="round"/>
<path d="M450.674 320.467C450.367 317.309 450.061 314.151 449.754 310.993" stroke="#171717" stroke-width="3.019" stroke-linecap="round" stroke-linejoin="round"/>
<path d="M416.682 324.17L406.25 325.488" stroke="#171717" stroke-width="3.019" stroke-linecap="round" stroke-linejoin="round"/>
<path d="M480.612 293.871L473.973 295.248" stroke="#171717" stroke-width="3.019" stroke-linecap="round" stroke-linejoin="round"/>
<path d="M415.332 366.877C415.805 363.562 416.278 360.247 416.752 356.932" stroke="#171717" stroke-width="3.019" stroke-linecap="round" stroke-linejoin="round"/>
<path d="M376.446 359.254L369.346 357.354" stroke="#171717" stroke-width="3.019" stroke-linecap="round" stroke-linejoin="round"/>
<path d="M352.206 389.576C353.16 386.421 354.114 383.266 355.069 380.111" stroke="#171717" stroke-width="3.019" stroke-linecap="round" stroke-linejoin="round"/>
<path d="M334.744 356L327.038 351.483" stroke="#171717" stroke-width="3.019" stroke-linecap="round" stroke-linejoin="round"/>
<path d="M314.746 393.819L317.58 385.765" stroke="#171717" stroke-width="3.019" stroke-linecap="round" stroke-linejoin="round"/>
<path d="M345.651 420.858L336.651 417.069" stroke="#171717" stroke-width="3.019" stroke-linecap="round" stroke-linejoin="round"/>
<path d="M331.327 454.9C332.542 452.352 333.758 449.803 334.973 447.254" stroke="#171717" stroke-width="3.019" stroke-linecap="round" stroke-linejoin="round"/>
<path d="M360.807 463.954L354.65 460.639" stroke="#171717" stroke-width="3.019" stroke-linecap="round" stroke-linejoin="round"/>
<path d="M284.01 428.87L288.15 420.287" stroke="#171717" stroke-width="3.019" stroke-linecap="round" stroke-linejoin="round"/>
<path d="M284.48 386.901L276.02 382.053" stroke="#171717" stroke-width="3.019" stroke-linecap="round" stroke-linejoin="round"/>
<path d="M259.429 416.582L261.745 410.406" stroke="#171717" stroke-width="3.019" stroke-linecap="round" stroke-linejoin="round"/>
<path d="M284.979 359.741C286.082 357.056 287.184 354.372 288.286 351.688" stroke="#171717" stroke-width="3.019" stroke-linecap="round" stroke-linejoin="round"/>
<path d="M246.2 364.023L237.758 358.683" stroke="#171717" stroke-width="3.019" stroke-linecap="round" stroke-linejoin="round"/>
<path d="M219.278 389.2C217.23 391.391 215.879 394.14 215.396 397.1" stroke="#171717" stroke-width="3.019" stroke-linecap="round" stroke-linejoin="round"/>
<path d="M218.763 433.105L212.153 429.75" stroke="#171717" stroke-width="3.019" stroke-linecap="round" stroke-linejoin="round"/>
<path d="M187.371 434.542L192.083 424.585" stroke="#171717" stroke-width="3.019" stroke-linecap="round" stroke-linejoin="round"/>
<path d="M231.944 451.639C231.988 448.636 232.828 445.699 234.377 443.126" stroke="#171717" stroke-width="3.019" stroke-linecap="round" stroke-linejoin="round"/>
<path d="M226.756 480.091L218.702 474.412" stroke="#171717" stroke-width="3.019" stroke-linecap="round" stroke-linejoin="round"/>
<path d="M262.699 462.5L266.03 455.4" stroke="#171717" stroke-width="3.019" stroke-linecap="round" stroke-linejoin="round"/>
<path d="M260.805 491.989L253.679 486.334" stroke="#171717" stroke-width="3.019" stroke-linecap="round" stroke-linejoin="round"/>
<path d="M356.905 498.467L360.546 491.288" stroke="#171717" stroke-width="3.019" stroke-linecap="round" stroke-linejoin="round"/>
<path d="M449.369 601.294C446.612 597.859 443.24 594.968 439.424 592.769" stroke="#171717" stroke-width="3.019" stroke-linecap="round" stroke-linejoin="round"/>
<path d="M440.629 602.573L447.39 592.24" stroke="#171717" stroke-width="3.019" stroke-linecap="round" stroke-linejoin="round"/>
<path d="M413.85 583.771C414.787 580.475 416.4 577.41 418.586 574.771" stroke="#171717" stroke-width="3.019" stroke-linecap="round" stroke-linejoin="round"/>
<path d="M419.532 582.823L411.955 576.193" stroke="#171717" stroke-width="3.019" stroke-linecap="round" stroke-linejoin="round"/>
<path d="M265.01 190.07C255.184 173.421 237.438 160.878 218.117 160.219C198.796 159.56 179.004 172.5 174.492 191.3C170.815 206.619 177.04 222.436 183.741 236.7C190.442 250.964 197.934 265.8 196.899 281.525C196.488 287.738 194.738 293.788 191.767 299.26C188.797 304.732 184.677 309.496 179.691 313.225C174.706 316.955 168.972 319.561 162.884 320.864C156.795 322.168 150.497 322.138 144.421 320.777C131.852 317.962 119.721 306.561 122.154 293.913C123.666 286.065 130.539 280.003 138.19 277.692C143.554 276.071 149.673 276.113 154.446 279.049C159.219 281.985 162.097 288.249 160.077 293.481C158.057 298.713 150.518 301.237 146.338 297.505" stroke="url(#paint5_linear_46_7771)" stroke-width="3.019" stroke-linecap="round" stroke-linejoin="round"/>
<g opacity="0.1">
<path d="M471.181 209.929C462.681 223.819 456.02 238.765 447.421 252.597C438.9 266.3 430.6 279.98 420.81 292.847C411.799 304.687 402.24 317.082 389.604 325.271C383.464 329.417 376.492 332.17 369.177 333.337C361.694 334.383 355.899 332.458 348.803 330.659C339.303 328.251 334.287 340.908 342.265 346.167C356.709 355.686 378.465 351.095 392.722 343.667C408.108 335.65 419.786 322.215 430.215 308.694C441.268 294.585 450.966 279.464 459.178 263.532C467.263 247.48 474.861 230.56 477.864 212.746C478.527 208.816 473.464 206.193 471.181 209.929V209.929Z" fill="#171717"/>
</g>
<g opacity="0.1">
<path d="M277.529 330.661C272.357 338.617 262.885 337.567 254.691 339.734C245.309 342.217 236.326 346.02 228.013 351.028C211.74 360.839 197.244 373.573 188.86 391.007C171.433 427.244 181.282 475.625 218.97 494.672C228.533 499.592 239.06 502.353 249.808 502.759C260.479 503.093 273.438 501.243 281.626 493.942C284.87 491.05 285.294 485.583 283.173 481.957C280.796 477.894 276.39 476.716 272.003 477.411C268.337 477.992 264.99 479.557 261.368 480.411C257.806 481.23 254.152 481.573 250.5 481.433C243.505 481.277 236.619 479.673 230.275 476.723C223.337 473.441 217.204 468.678 212.306 462.769C207.409 456.86 203.867 449.949 201.93 442.523C192.958 409.834 212.256 375.437 241.304 360.307C245.44 358.139 249.721 356.258 254.115 354.678C258.435 353.137 263.124 352.332 267.26 350.333C274.647 346.765 283.594 342.897 285.583 334.064C285.83 333.043 285.705 331.967 285.232 331.029C284.758 330.091 283.967 329.352 282.999 328.943C282.03 328.535 280.949 328.485 279.947 328.801C278.945 329.117 278.088 329.779 277.529 330.669V330.661Z" fill="#171717"/>
</g>
<g opacity="0.1">
<path d="M255.926 376.269C253.793 379.348 253.026 383.135 251.914 386.68C250.659 390.68 249.497 394.672 248.426 398.723L245.466 409.912C244.466 413.712 243.877 418.36 242.245 421.924C236.779 433.864 256.158 438.631 256.958 425.909C257.188 422.246 258.644 418.337 259.492 414.779L262.402 402.579C263.302 398.81 264.122 395.055 264.848 391.249C265.591 387.349 266.941 383.099 266.496 379.135C265.866 373.535 259.285 371.425 255.926 376.272V376.269Z" fill="#171717"/>
</g>
<g opacity="0.1">
<path d="M227.492 515.563C228.88 513.563 228.683 511.429 229.086 509.156C229.162 508.73 229.256 508.308 229.367 507.889C229.849 506.595 229.577 506.722 228.55 508.27C228.613 508.527 232.097 504.509 232.193 504.383C234.963 500.727 232.286 495.237 228.584 493.677C224.677 492.031 219.332 494.077 218.399 498.568C218.041 500.335 217.983 502.149 218.225 503.934C218.197 503.721 218.19 505.22 218.155 505.503C218.067 506.217 217.98 506.928 217.94 507.648C217.767 510.822 217.975 514.173 220.425 516.474C220.918 516.948 221.511 517.305 222.16 517.519C222.809 517.733 223.498 517.798 224.176 517.711C224.854 517.624 225.504 517.385 226.078 517.014C226.652 516.642 227.135 516.146 227.492 515.563V515.563Z" fill="#171717"/>
</g>
<g opacity="0.1">
<path d="M473.975 710.667C465.284 711.216 456.866 713.921 449.483 718.539C442.072 723.352 434.24 730.287 429.392 737.69C423.034 747.401 440.237 756.046 444.7 744.143C446.061 740.515 446.972 736.966 449.168 733.71C451.201 730.872 453.512 728.244 456.068 725.865C461.461 720.569 467.758 716.28 474.661 713.2C474.912 713.045 475.106 712.813 475.214 712.539C475.322 712.264 475.339 711.962 475.262 711.678C475.185 711.393 475.018 711.141 474.786 710.959C474.554 710.777 474.27 710.674 473.975 710.667V710.667Z" fill="#171717"/>
</g>
<g opacity="0.1">
<path d="M320.427 766.052C317.127 765.722 313.302 768.218 310.47 769.797C306.793 771.848 303.77 775.197 300.851 778.163C293.941 785.163 290.941 793.02 289.667 802.663C288.986 807.81 294.567 812.263 299.267 812.263C304.297 812.263 309.081 807.87 308.867 802.663C308.559 796.464 309.426 790.262 311.423 784.385C312.517 781.364 314.377 779.065 316.198 776.485C317.998 773.944 320.952 771.965 322.255 769.229C322.432 768.907 322.523 768.545 322.52 768.178C322.516 767.81 322.419 767.45 322.236 767.131C322.053 766.812 321.791 766.546 321.476 766.357C321.16 766.169 320.801 766.065 320.434 766.055L320.427 766.052Z" fill="#171717"/>
</g>
<g opacity="0.1">
<path d="M498.27 429.531L497.67 429.512C496.989 429.505 496.319 429.679 495.728 430.018C495.138 430.357 494.648 430.848 494.311 431.439C490.774 438.639 487.824 446.12 484.088 453.215C480.426 460.172 478.92 467.652 477.622 475.372C471.995 506.906 474.319 539.346 484.382 569.757C486.897 577.395 489.827 584.891 493.158 592.21C496.616 599.876 500.328 608.061 505.763 614.524C512.374 622.385 527.579 613.96 523.548 604.171C520.501 596.771 516.008 589.997 512.602 582.734C509.77 576.645 507.299 570.395 505.202 564.016C500.697 550.368 497.633 536.286 496.062 522C494.389 507.322 494.219 492.512 495.553 477.8C496.207 470.793 497.698 463.892 497.544 456.86C497.376 449.198 499.373 441.76 501.423 434.438C501.609 433.775 501.615 433.075 501.439 432.409C501.263 431.744 500.912 431.137 500.423 430.653C499.874 430.02 499.105 429.619 498.271 429.532L498.27 429.531Z" fill="#171717"/>
</g>
<g opacity="0.1">
<path d="M882.666 593.015C878.617 592.556 874.997 594.004 871.123 594.998C866.687 596.135 862.132 596.235 857.706 597.593C849.552 600.198 841.535 603.21 833.683 606.618C817.609 613.341 802.233 621.622 787.774 631.343C759.108 650.564 733.666 674.203 712.393 701.381C706.263 709.257 700.421 717.339 695.024 725.736C692.424 729.778 689.93 733.886 687.464 738.008C684.713 742.608 681.354 747.363 680.404 752.708C678.739 762.072 689.771 770.377 697.327 762.559C703.221 756.459 706.295 747.404 710.644 740.138C714.927 732.984 719.499 726.014 724.36 719.227C733.916 705.971 744.539 693.517 756.123 681.991C779.595 658.503 806.814 639.462 835.966 623.673C843.937 619.356 852.089 615.398 860.422 611.8C864.613 609.994 868.314 607.632 872.348 605.609C876.8 603.376 881.425 602.819 885.417 599.659C888.388 597.307 885.574 593.347 882.666 593.017V593.015Z" fill="#171717"/>
</g>
</g>
</g>
<defs>
<linearGradient id="paint0_linear_46_7771" x1="782.932" y1="592.275" x2="782.246" y2="825.602" gradientUnits="userSpaceOnUse">
<stop stop-color="#72DEFF"/>
<stop offset="1" stop-color="#1A9AEF"/>
</linearGradient>
<linearGradient id="paint1_linear_46_7771" x1="507.144" y1="426.636" x2="505.69" y2="621.911" gradientUnits="userSpaceOnUse">
<stop stop-color="#72DEFF"/>
<stop offset="1" stop-color="#1A9AEF"/>
</linearGradient>
<linearGradient id="paint2_linear_46_7771" x1="464.001" y1="710.256" x2="463.742" y2="833.492" gradientUnits="userSpaceOnUse">
<stop stop-color="#72DEFF"/>
<stop offset="1" stop-color="#1A9AEF"/>
</linearGradient>
<linearGradient id="paint3_linear_46_7771" x1="306.821" y1="766.502" x2="306.668" y2="832.809" gradientUnits="userSpaceOnUse">
<stop stop-color="#72DEFF"/>
<stop offset="1" stop-color="#1A9AEF"/>
</linearGradient>
<linearGradient id="paint4_linear_46_7771" x1="351.182" y1="210.04" x2="350.461" y2="516.81" gradientUnits="userSpaceOnUse">
<stop stop-color="#72DEFF"/>
<stop offset="1" stop-color="#1A9AEF"/>
</linearGradient>
<linearGradient id="paint5_linear_46_7771" x1="193.426" y1="160.195" x2="192.956" y2="320.939" gradientUnits="userSpaceOnUse">
<stop stop-color="#72DEFF"/>
<stop offset="1" stop-color="#1A9AEF"/>
</linearGradient>
<clipPath id="clip0_46_7771">
<rect width="960" height="960" fill="white"/>
</clipPath>
<clipPath id="clip1_46_7771">
<rect width="885" height="755" fill="white" transform="translate(38 103)"/>
</clipPath>
</defs>
</svg>
